<svg width="32" height="30" viewBox="0 0 32 30" fill="none" xmlns="http://www.w3.org/2000/svg">
<g clip-path="url(#clip0)">
<path d="M18.5199 11.25V13.125C18.5199 13.5117 18.1909 13.8281 17.7888 13.8281H14.3773V17.1094C14.3773 17.4961 14.0483 17.8125 13.6462 17.8125H11.6968C11.2947 17.8125 10.9657 17.4961 10.9657 17.1094V13.8281H7.55415C7.15208 13.8281 6.8231 13.5117 6.8231 13.125V11.25C6.8231 10.8633 7.15208 10.5469 7.55415 10.5469H10.9657V7.26562C10.9657 6.87891 11.2947 6.5625 11.6968 6.5625H13.6462C14.0483 6.5625 14.3773 6.87891 14.3773 7.26562V10.5469H17.7888C18.1909 10.5469 18.5199 10.8633 18.5199 11.25ZM30.7649 27.9316L29.0408 29.5898C28.4682 30.1406 27.5422 30.1406 26.9756 29.5898L20.8958 23.748C20.6216 23.4844 20.4693 23.127 20.4693 22.752V21.7969C18.3188 23.4141 15.6139 24.375 12.6715 24.375C5.67171 24.375 0 18.9199 0 12.1875C0 5.45508 5.67171 0 12.6715 0C19.6713 0 25.343 5.45508 25.343 12.1875C25.343 15.0176 24.3439 17.6191 22.6625 19.6875H23.6555C24.0454 19.6875 24.417 19.834 24.6911 20.0977L30.7649 25.9395C31.3315 26.4902 31.3315 27.3809 30.7649 27.9316ZM20.9567 12.1875C20.9567 7.78125 17.2527 4.21875 12.6715 4.21875C8.09025 4.21875 4.38628 7.78125 4.38628 12.1875C4.38628 16.5937 8.09025 20.1562 12.6715 20.1562C17.2527 20.1562 20.9567 16.5937 20.9567 12.1875Z" fill="white"/>
</g>
<defs>
<clipPath id="clip0">
<rect width="31.1913" height="30" fill="white"/>
</clipPath>
</defs>
</svg>
