<svg width="30" height="30" viewBox="0 0 30 30" fill="none" xmlns="http://www.w3.org/2000/svg">
<g clip-path="url(#clip0)">
<path d="M17.8125 11.25V13.125C17.8125 13.5117 17.4961 13.8281 17.1094 13.8281H13.8281V17.1094C13.8281 17.4961 13.5117 17.8125 13.125 17.8125H11.25C10.8633 17.8125 10.5469 17.4961 10.5469 17.1094V13.8281H7.26562C6.87891 13.8281 6.5625 13.5117 6.5625 13.125V11.25C6.5625 10.8633 6.87891 10.5469 7.26562 10.5469H10.5469V7.26562C10.5469 6.87891 10.8633 6.5625 11.25 6.5625H13.125C13.5117 6.5625 13.8281 6.87891 13.8281 7.26562V10.5469H17.1094C17.4961 10.5469 17.8125 10.8633 17.8125 11.25ZM29.5898 27.9316L27.9316 29.5898C27.3809 30.1406 26.4902 30.1406 25.9453 29.5898L20.0977 23.748C19.834 23.4844 19.6875 23.127 19.6875 22.752V21.7969C17.6191 23.4141 15.0176 24.375 12.1875 24.375C5.45508 24.375 0 18.9199 0 12.1875C0 5.45508 5.45508 0 12.1875 0C18.9199 0 24.375 5.45508 24.375 12.1875C24.375 15.0176 23.4141 17.6191 21.7969 19.6875H22.752C23.127 19.6875 23.4844 19.834 23.748 20.0977L29.5898 25.9395C30.1348 26.4902 30.1348 27.3809 29.5898 27.9316ZM20.1562 12.1875C20.1562 7.78125 16.5938 4.21875 12.1875 4.21875C7.78125 4.21875 4.21875 7.78125 4.21875 12.1875C4.21875 16.5938 7.78125 20.1562 12.1875 20.1562C16.5938 20.1562 20.1562 16.5938 20.1562 12.1875Z" fill="url(#paint0_linear)"/>
</g>
<defs>
<linearGradient id="paint0_linear" x1="0" y1="0" x2="30.8461" y2="0.898328" gradientUnits="userSpaceOnUse">
<stop stop-color="#6B46C1"/>
<stop offset="0.0676187" stop-color="#805AD5"/>
<stop offset="0.257269" stop-color="#9F7AEA"/>
<stop offset="1" stop-color="#B794F4"/>
</linearGradient>
<clipPath id="clip0">
<rect width="30" height="30" fill="white"/>
</clipPath>
</defs>
</svg>
