<svg width="113" height="150" viewBox="0 0 113 150" fill="none" xmlns="http://www.w3.org/2000/svg">
<path d="M0 8C0 3.58172 3.58172 0 8 0H112.941V150H8C3.58172 150 0 146.418 0 142V8Z" fill="#EDF2F7"/>
<path d="M80.3339 83.6863C80.3345 83.7954 80.3136 83.9036 80.2723 84.0047C80.2311 84.1058 80.1703 84.1977 80.0935 84.2753C80.0168 84.3529 79.9254 84.4146 79.8248 84.4569C79.7242 84.4992 79.6162 84.5213 79.507 84.5218H43.1259C43.0167 84.5213 42.9087 84.4992 42.8081 84.4569C42.7075 84.4146 42.6162 84.3529 42.5394 84.2753C42.4626 84.1977 42.4018 84.1058 42.3606 84.0047C42.3193 83.9036 42.2984 83.7954 42.299 83.6863V58.8356C42.2984 58.7264 42.3193 58.6182 42.3606 58.5171C42.4018 58.4161 42.4626 58.3241 42.5394 58.2465C42.6162 58.1689 42.7075 58.1072 42.8081 58.0649C42.9087 58.0226 43.0167 58.0006 43.1259 58H79.507C79.6162 58.0006 79.7242 58.0226 79.8248 58.0649C79.9254 58.1072 80.0168 58.1689 80.0935 58.2465C80.1703 58.3241 80.2311 58.4161 80.2723 58.5171C80.3136 58.6182 80.3345 58.7264 80.3339 58.8356" fill="url(#paint0_linear)"/>
<path d="M79.9064 83.2793C79.9064 83.3854 79.8855 83.4905 79.8449 83.5885C79.8043 83.6865 79.7448 83.7756 79.6698 83.8506C79.5947 83.9257 79.5057 83.9852 79.4076 84.0258C79.3096 84.0664 79.2046 84.0873 79.0985 84.0873H43.561C43.3467 84.0873 43.1412 84.0021 42.9897 83.8506C42.8382 83.6991 42.7531 83.4936 42.7531 83.2793V59.2566C42.7535 59.0426 42.8388 58.8375 42.9903 58.6864C43.1417 58.5352 43.347 58.4503 43.561 58.4503H79.0985C79.3127 58.4503 79.5182 58.5354 79.6698 58.6869C79.8213 58.8384 79.9064 59.0439 79.9064 59.2582" fill="#F5F5F5"/>
<path d="M78.0435 59.5974H44.6523C44.3875 59.5974 44.1728 59.8121 44.1728 60.077V82.5798C44.1728 82.8446 44.3875 83.0593 44.6523 83.0593H78.0435C78.3083 83.0593 78.523 82.8446 78.523 82.5798V60.077C78.523 59.8121 78.3083 59.5974 78.0435 59.5974Z" fill="url(#paint1_linear)"/>
<path d="M77.5845 60.1371H45.075C44.8101 60.1371 44.5954 60.3518 44.5954 60.6167V81.9187C44.5954 82.1835 44.8101 82.3982 45.075 82.3982H77.5845C77.8493 82.3982 78.064 82.1835 78.064 81.9187V60.6167C78.064 60.3518 77.8493 60.1371 77.5845 60.1371Z" fill="white"/>
<path d="M42.7341 82.194L52.0781 71.4872C52.2393 71.3025 52.4354 71.1516 52.6551 71.0429C52.8748 70.9343 53.1138 70.8702 53.3584 70.8542C53.6029 70.8383 53.8482 70.8708 54.0802 70.9499C54.3121 71.0291 54.5262 71.1533 54.71 71.3154L57.3267 73.6227C57.6608 73.9174 58.0895 74.0825 58.535 74.0879C58.9805 74.0933 59.4132 73.9386 59.7543 73.6519L67.7512 66.9311C68.1193 66.6217 68.5929 66.4669 69.0727 66.4992C69.5524 66.5314 70.0011 66.7482 70.3245 67.104L80.1384 77.9034C80.4107 78.2033 80.5777 78.5838 80.6141 78.9872L80.9934 83.2479C81.0169 83.5053 80.9865 83.7648 80.9042 84.0098C80.8218 84.2547 80.6893 84.4799 80.5151 84.6708C80.3409 84.8617 80.1288 85.0143 79.8924 85.1187C79.6559 85.2231 79.4003 85.2771 79.1419 85.2772H44.137C43.6534 85.2772 43.1889 85.0888 42.8418 84.7521C42.4948 84.4153 42.2925 83.9567 42.2779 83.4733V83.4733C42.2632 83.0046 42.4262 82.5477 42.7341 82.194V82.194Z" fill="#A0AEC0"/>
<path d="M48.6259 65.7796C49.7706 65.7796 50.6985 64.8517 50.6985 63.707C50.6985 62.5623 49.7706 61.6343 48.6259 61.6343C47.4812 61.6343 46.5532 62.5623 46.5532 63.707C46.5532 64.8517 47.4812 65.7796 48.6259 65.7796Z" fill="#FC8181"/>
<path d="M74.6985 87.2941C74.699 87.4032 74.6781 87.5114 74.6369 87.6125C74.5956 87.7135 74.5349 87.8055 74.4581 87.8831C74.3813 87.9607 74.29 88.0224 74.1893 88.0647C74.0887 88.107 73.9807 88.129 73.8716 88.1296H37.4883C37.3789 88.1293 37.2707 88.1075 37.1698 88.0653C37.0689 88.0231 36.9774 87.9615 36.9003 87.8839C36.8233 87.8062 36.7624 87.7142 36.721 87.613C36.6796 87.5118 36.6586 87.4034 36.6592 87.2941V62.4439C36.6586 62.3347 36.6796 62.2265 36.7208 62.1254C36.762 62.0244 36.8228 61.9324 36.8996 61.8548C36.9764 61.7772 37.0677 61.7155 37.1683 61.6732C37.2689 61.6309 37.3769 61.6089 37.4861 61.6083H73.8694C73.9787 61.6086 74.087 61.6305 74.1878 61.6726C74.2887 61.7148 74.3803 61.7765 74.4573 61.8541C74.5343 61.9317 74.5953 62.0237 74.6366 62.125C74.678 62.2262 74.699 62.3345 74.6985 62.4439" fill="url(#paint2_linear)"/>
<path d="M74.2688 86.8877C74.2688 87.1019 74.1837 87.3074 74.0322 87.459C73.8807 87.6105 73.6752 87.6956 73.4609 87.6956H37.9234C37.7091 87.6956 37.5036 87.6105 37.3521 87.459C37.2006 87.3074 37.1154 87.1019 37.1154 86.8877V62.8644C37.1154 62.6501 37.2006 62.4446 37.3521 62.2931C37.5036 62.1416 37.7091 62.0564 37.9234 62.0564H73.4609C73.6752 62.0564 73.8807 62.1416 74.0322 62.2931C74.1837 62.4446 74.2688 62.6501 74.2688 62.8644" fill="#F5F5F5"/>
<path d="M72.4058 63.2057H39.0147C38.7499 63.2057 38.5352 63.4204 38.5352 63.6853V86.1881C38.5352 86.4529 38.7499 86.6676 39.0147 86.6676H72.4058C72.6707 86.6676 72.8854 86.4529 72.8854 86.1881V63.6853C72.8854 63.4204 72.6707 63.2057 72.4058 63.2057Z" fill="url(#paint3_linear)"/>
<path d="M71.9469 63.7455H39.4374C39.1725 63.7455 38.9578 63.9602 38.9578 64.225V85.527C38.9578 85.7919 39.1725 86.0066 39.4374 86.0066H71.9469C72.2117 86.0066 72.4264 85.7919 72.4264 85.527V64.225C72.4264 63.9602 72.2117 63.7455 71.9469 63.7455Z" fill="white"/>
<path d="M37.0965 85.8023L46.4405 75.0949C46.6017 74.9102 46.7978 74.7592 47.0175 74.6505C47.2373 74.5419 47.4764 74.4777 47.721 74.4617C47.9656 74.4458 48.211 74.4783 48.443 74.5575C48.675 74.6367 48.8891 74.761 49.0729 74.9232L51.6891 77.2315C52.0231 77.5263 52.4519 77.6914 52.8974 77.6968C53.3429 77.7021 53.7756 77.5474 54.1166 77.2608L62.1136 70.5389C62.4817 70.2295 62.9553 70.0747 63.4351 70.1069C63.9148 70.1392 64.3635 70.3559 64.6869 70.7117L74.5002 81.5134C74.7725 81.8132 74.9396 82.1937 74.9759 82.5971L75.3552 86.8578C75.378 87.1149 75.3471 87.374 75.2643 87.6184C75.1816 87.8629 75.0488 88.0875 74.8746 88.2779C74.7003 88.4683 74.4884 88.6204 74.2522 88.7244C74.016 88.8285 73.7607 88.8822 73.5026 88.8823H38.4978C38.0142 88.8822 37.5497 88.6939 37.2026 88.3571C36.8555 88.0204 36.6533 87.5617 36.6386 87.0784V87.0784C36.6253 86.6106 36.7888 86.1549 37.0965 85.8023Z" fill="#A0AEC0"/>
<path d="M42.9883 69.3874C44.133 69.3874 45.0609 68.4594 45.0609 67.3147C45.0609 66.1701 44.133 65.2421 42.9883 65.2421C41.8436 65.2421 40.9156 66.1701 40.9156 67.3147C40.9156 68.4594 41.8436 69.3874 42.9883 69.3874Z" fill="#FC8181"/>
<path d="M69.0587 90.9024C69.0593 91.0115 69.0383 91.1197 68.9971 91.2208C68.9558 91.3219 68.8951 91.4138 68.8183 91.4914C68.7415 91.569 68.6502 91.6307 68.5496 91.673C68.4489 91.7153 68.341 91.7374 68.2318 91.7379H31.8506C31.7415 91.7374 31.6335 91.7153 31.5329 91.673C31.4322 91.6307 31.3409 91.569 31.2641 91.4914C31.1873 91.4138 31.1266 91.3219 31.0854 91.2208C31.0441 91.1197 31.0232 91.0115 31.0237 90.9024V66.0517C31.0232 65.9425 31.0441 65.8343 31.0854 65.7332C31.1266 65.6322 31.1873 65.5402 31.2641 65.4626C31.3409 65.385 31.4322 65.3233 31.5329 65.281C31.6335 65.2387 31.7415 65.2167 31.8506 65.2161H68.2318C68.341 65.2167 68.4489 65.2387 68.5496 65.281C68.6502 65.3233 68.7415 65.385 68.8183 65.4626C68.8951 65.5402 68.9558 65.6322 68.9971 65.7332C69.0383 65.8343 69.0593 65.9425 69.0587 66.0517" fill="url(#paint4_linear)"/>
<path d="M68.6295 90.4954C68.6295 90.7097 68.5444 90.9152 68.3929 91.0667C68.2414 91.2182 68.0359 91.3034 67.8216 91.3034H32.2858C32.0715 91.3034 31.866 91.2182 31.7145 91.0667C31.5629 90.9152 31.4778 90.7097 31.4778 90.4954V66.47C31.4778 66.2557 31.5629 66.0502 31.7145 65.8987C31.866 65.7472 32.0715 65.662 32.2858 65.662H67.8232C68.0372 65.6625 68.2423 65.7478 68.3935 65.8993C68.5446 66.0507 68.6295 66.256 68.6295 66.47" fill="white"/>
<path d="M66.7682 66.8135H33.3771C33.1122 66.8135 32.8975 67.0282 32.8975 67.2931V89.7959C32.8975 90.0607 33.1122 90.2754 33.3771 90.2754H66.7682C67.0331 90.2754 67.2478 90.0607 67.2478 89.7959V67.2931C67.2478 67.0282 67.0331 66.8135 66.7682 66.8135Z" fill="url(#paint5_linear)"/>
<path d="M66.3093 67.3532H33.7997C33.5349 67.3532 33.3202 67.5679 33.3202 67.8328V89.1348C33.3202 89.3996 33.5349 89.6143 33.7997 89.6143H66.3093C66.5741 89.6143 66.7888 89.3996 66.7888 89.1348V67.8328C66.7888 67.5679 66.5741 67.3532 66.3093 67.3532Z" fill="white"/>
<path d="M31.4572 89.4101L40.8034 78.7032C40.9645 78.519 41.1605 78.3684 41.3799 78.26C41.5994 78.1516 41.8381 78.0876 42.0823 78.0717C42.3266 78.0557 42.5716 78.0881 42.8033 78.167C43.035 78.2459 43.2488 78.3698 43.4326 78.5315L46.0487 80.8398C46.3828 81.1346 46.8116 81.2997 47.2571 81.3051C47.7026 81.3104 48.1352 81.1557 48.4763 80.8691L56.4759 74.1472C56.844 73.8378 57.3176 73.683 57.7974 73.7153C58.2772 73.7475 58.7258 73.9642 59.0493 74.3201L68.8625 85.1217C69.1349 85.4215 69.3019 85.802 69.3383 86.2054L69.7176 90.4662C69.7404 90.7233 69.7094 90.9823 69.6267 91.2268C69.5439 91.4712 69.4112 91.6958 69.2369 91.8862C69.0627 92.0766 68.8507 92.2287 68.6145 92.3327C68.3783 92.4368 68.1231 92.4905 67.865 92.4906H32.8601C32.3774 92.4906 31.9135 92.3029 31.5666 91.9672C31.2197 91.6315 31.0169 91.1741 31.001 90.6916V90.6916C30.9858 90.2221 31.1488 89.7643 31.4572 89.4101Z" fill="#A0AEC0"/>
<path d="M37.3506 72.9957C38.4953 72.9957 39.4233 72.0678 39.4233 70.9231C39.4233 69.7784 38.4953 68.8504 37.3506 68.8504C36.2059 68.8504 35.278 69.7784 35.278 70.9231C35.278 72.0678 36.2059 72.9957 37.3506 72.9957Z" fill="#FC8181"/>
<defs>
<linearGradient id="paint0_linear" x1="61.3165" y1="84.5218" x2="61.3165" y2="58" gradientUnits="userSpaceOnUse">
<stop offset="0.01" stop-color="#808080" stop-opacity="0.25"/>
<stop offset="0.54" stop-color="#808080" stop-opacity="0.12"/>
<stop offset="1" stop-color="#808080" stop-opacity="0.1"/>
</linearGradient>
<linearGradient id="paint1_linear" x1="19282" y1="10909.8" x2="19282" y2="751.254" gradientUnits="userSpaceOnUse">
<stop offset="0.01" stop-color="#808080" stop-opacity="0.25"/>
<stop offset="0.54" stop-color="#808080" stop-opacity="0.12"/>
<stop offset="1" stop-color="#808080" stop-opacity="0.1"/>
</linearGradient>
<linearGradient id="paint2_linear" x1="22860.2" y1="18486.5" x2="22860.2" y2="5505.9" gradientUnits="userSpaceOnUse">
<stop offset="0.01" stop-color="#808080" stop-opacity="0.25"/>
<stop offset="0.54" stop-color="#808080" stop-opacity="0.12"/>
<stop offset="1" stop-color="#808080" stop-opacity="0.1"/>
</linearGradient>
<linearGradient id="paint3_linear" x1="15702.6" y1="12475.5" x2="15702.6" y2="2317.19" gradientUnits="userSpaceOnUse">
<stop offset="0.01" stop-color="#808080" stop-opacity="0.25"/>
<stop offset="0.54" stop-color="#808080" stop-opacity="0.12"/>
<stop offset="1" stop-color="#808080" stop-opacity="0.1"/>
</linearGradient>
<linearGradient id="paint4_linear" x1="18894.9" y1="20256.6" x2="18894.9" y2="7275.44" gradientUnits="userSpaceOnUse">
<stop offset="0.01" stop-color="#808080" stop-opacity="0.25"/>
<stop offset="0.54" stop-color="#808080" stop-opacity="0.12"/>
<stop offset="1" stop-color="#808080" stop-opacity="0.1"/>
</linearGradient>
<linearGradient id="paint5_linear" x1="12123.2" y1="14041.4" x2="12123.2" y2="3882.89" gradientUnits="userSpaceOnUse">
<stop offset="0.01" stop-color="#808080" stop-opacity="0.25"/>
<stop offset="0.54" stop-color="#808080" stop-opacity="0.12"/>
<stop offset="1" stop-color="#808080" stop-opacity="0.1"/>
</linearGradient>
</defs>
</svg>
