<svg width="300" height="235" viewBox="0 0 300 235" fill="none" xmlns="http://www.w3.org/2000/svg">
<g clip-path="url(#clip0)">
<path opacity="0.1" d="M105.235 230.193C134.137 230.193 157.566 225.755 157.566 220.28C157.566 214.805 134.137 210.366 105.235 210.366C76.3336 210.366 52.9043 214.805 52.9043 220.28C52.9043 225.755 76.3336 230.193 105.235 230.193Z" fill="#6C63FF"/>
<path opacity="0.1" d="M174.302 33.1042C155.07 32.4385 136.752 26.2278 119.261 19.4346C101.77 12.6414 84.4454 5.11719 65.6735 1.51852C53.5997 -0.796396 39.7904 -1.12625 30.0642 5.34006C20.7005 11.5805 17.6754 22.323 16.0499 32.2989C14.8256 39.8053 14.1064 47.7069 17.4584 54.7348C19.7882 59.6143 23.9188 63.7152 26.7775 68.3896C36.7237 84.6505 29.6927 104.703 18.9175 120.581C13.8657 128.028 7.99671 135.142 4.09493 143.061C0.193158 150.981 -1.61063 160.086 1.80379 168.187C5.18553 176.21 13.2476 182.225 21.9813 186.459C39.7191 195.062 60.6128 197.523 81.0013 198.919C126.12 202.004 171.476 200.67 216.714 199.329C233.456 198.836 250.269 198.334 266.738 195.746C275.885 194.307 285.326 192.025 291.968 186.516C300.395 179.523 302.484 167.684 296.835 158.918C287.362 144.208 261.175 140.556 254.546 124.774C250.902 116.085 254.644 106.409 259.942 98.3527C271.306 81.0666 290.351 65.9023 291.353 46.1468C292.042 32.5782 282.886 18.9889 268.729 12.5671C253.892 5.83633 233.313 6.68325 222.372 17.824C211.094 29.2827 191.285 33.6955 174.302 33.1042Z" fill="#6C63FF"/>
<path d="M159.019 107.497L149.917 101.36L154.508 94.5252L130.467 92.6085L121.829 99.2888L111.015 93.2266L101.996 94.3113L101.889 91.934C101.777 89.4556 101.528 86.9853 101.143 84.5346C101.182 83.7916 101.208 82.9388 101.205 82.0116C101.205 78.1039 100.677 72.9243 98.3527 69.4713L98.8876 64.6631L94.549 59.537C95.2457 58.1492 96.0402 56.8125 96.9263 55.5372C97.0749 55.3232 97.2235 55.1152 97.384 54.9131C103.015 54.506 107.458 49.8762 107.458 44.2152C107.458 43.9537 107.458 43.6922 107.428 43.4337C107.428 43.3297 107.407 43.2227 107.395 43.1187C107.945 43.4158 108.501 43.713 109.057 44.0102C109.161 44.1587 109.279 44.3073 109.41 44.4827L109.437 44.5153L109.603 44.7204L109.657 44.7828C109.716 44.8541 109.779 44.9225 109.841 44.9938L109.883 45.0413C110.04 45.2167 110.207 45.395 110.385 45.5703C110.406 45.5875 110.426 45.6064 110.444 45.6267L110.667 45.8348L110.73 45.8912C110.92 46.0606 111.122 46.224 111.324 46.3786L111.389 46.4261L111.645 46.6014L111.728 46.6549C111.826 46.7144 111.927 46.7768 112.025 46.8332L112.061 46.854C112.177 46.9164 112.296 46.9759 112.415 47.0323L112.474 47.0561C112.575 47.0997 112.674 47.1413 112.771 47.1809L112.863 47.2136C112.967 47.2493 113.068 47.2819 113.175 47.3117L113.241 47.3295C113.371 47.3622 113.502 47.3889 113.636 47.4097H113.651C113.777 47.4301 113.904 47.443 114.031 47.4484H114.117C114.231 47.4543 114.345 47.4543 114.459 47.4484H114.533C114.676 47.4401 114.818 47.4233 114.958 47.3978C115.623 47.3104 116.262 47.0814 116.83 46.7262C116.975 46.6294 117.104 46.51 117.211 46.3726C117.805 45.594 117.151 44.7412 117.151 44.7412C116.92 44.1885 115.416 43.7992 115.416 43.7992C115.416 43.7992 110.661 41.8141 110.661 40.2332C110.661 38.6523 109.473 30.4505 97.2027 28.5754C97.2027 28.5754 89.2208 28.1267 86.9772 32.3999L86.9297 32.8992C86.27 33.3122 85.7232 34.1413 85.0724 34.385C84.7912 34.4454 84.5201 34.5454 84.2671 34.6822V34.6257C84.192 34.6914 84.1304 34.7711 84.0858 34.8604C83.946 35.1386 83.8622 35.4415 83.8392 35.7519C83.7722 36.1312 83.6405 36.4961 83.4499 36.8307C83.3967 36.9257 83.3372 37.0171 83.2716 37.104L83.2211 37.1843C83.5661 37.2112 83.9125 37.1551 84.2314 37.0208C84.1812 37.4277 84.0814 37.8269 83.9343 38.2095C84.1232 38.2156 84.3099 38.1673 84.4721 38.0704C84.6344 37.9735 84.7654 37.832 84.8495 37.6627V37.6389L84.8882 37.5854C84.9629 37.4479 85.0246 37.3036 85.0724 37.1546L85.0397 37.1902C85.0991 36.9971 85.1526 36.8009 85.218 36.6107C85.248 36.5036 85.2973 36.4029 85.3636 36.3136C85.4429 36.2336 85.5399 36.1734 85.6468 36.1378C85.7536 36.1022 85.8673 36.0922 85.9788 36.1085L85.8569 38.685H85.9104C85.8388 38.8724 85.7514 39.0533 85.6489 39.2258C85.2269 39.9093 84.4602 40.3758 84.1779 41.1247C84.0562 41.4859 84.0097 41.8681 84.0412 42.248C84.0412 42.4708 84.068 42.6967 84.0858 42.9196V42.9017C84.1274 43.4961 84.1393 44.0607 83.8184 44.5391C83.5985 44.866 83.2448 45.1126 83.123 45.4841C83.0893 45.5876 83.0742 45.6963 83.0784 45.805C83.1023 46.1307 83.1703 46.4516 83.2805 46.7589C83.2818 46.7531 83.2818 46.747 83.2805 46.7411C83.3546 46.9672 83.372 47.208 83.331 47.4424C83.1973 48.0367 82.4752 48.533 82.5108 49.1006C82.5088 49.1752 82.5199 49.2497 82.5435 49.3205C82.6825 49.5977 82.9231 49.8106 83.2151 49.9148C83.6733 50.1754 84.1995 50.2914 84.7247 50.2477C84.9216 50.2121 85.1119 50.147 85.2893 50.0545C85.0813 50.5329 84.8674 51.0054 84.6504 51.4541C84.6177 51.5255 84.5821 51.5968 84.5464 51.6681C84.5464 51.6681 82.7099 50.4408 81.6669 52.9429C81.3624 53.4629 81.1446 54.029 81.022 54.619C80.9698 54.8549 80.8962 55.0857 80.8021 55.3084C80.3391 56.0923 79.646 56.7148 78.8171 57.0914C76.6894 58.0661 68.0954 68.7848 67.9438 71.5603C67.8694 72.6438 67.6863 73.717 67.397 74.7638C66.7205 77.2289 66.5467 79.8049 66.8859 82.3385C66.9921 83.1573 67.1681 83.9656 67.4119 84.7545C68.3242 87.527 68.9334 92.7007 68.9334 92.7007L69.92 101.681C69.8833 102.92 69.937 104.161 70.0804 105.393C69.073 106.543 65.0286 111.336 66.5739 112.64C67.7625 113.669 69.8427 113.499 71.0106 113.288C70.0269 115.722 68.4787 119.954 68.2737 122.86C67.9765 127.16 68.7818 132.857 70.0567 135.044C71.3315 137.231 75.581 142.841 75.581 142.841C75.581 142.841 75.3819 150.538 76.9004 153.334C78.4189 156.131 79.031 161.931 79.031 161.931C79.031 161.931 80.4485 166.828 79.7383 168.629C79.0281 170.43 81.0547 171.928 78.927 173.125C76.7993 174.323 74.0773 201.314 74.0773 201.314C74.0773 201.314 72.9808 219.005 74.0773 219.905C74.136 219.948 74.1987 219.985 74.2645 220.015V225.958C74.2645 225.958 73.5038 227.206 76.5973 227.459C78.716 227.628 84.7218 228.012 88.2848 228.235L91.0454 228.407C91.0454 228.407 97.5831 229.709 100.471 228.407C103.36 227.105 108.48 227.135 107.719 223.697C107.618 223.229 107.483 222.769 107.315 222.321C106.48 220.187 105.063 219.944 102.451 219.349C102.299 219.317 102.153 219.287 102.02 219.263C99.268 218.785 98.3646 220.066 96.8223 218.398C95.4821 216.957 91.2148 215.344 89.7617 214.833C89.7973 214.726 89.8419 214.622 89.8776 214.512C89.4661 214.442 89.0834 214.255 88.7751 213.974L92.7125 214.223L95.0571 214.369C95.0571 214.369 100.614 215.477 103.081 214.369C105.547 213.261 109.886 213.29 109.238 210.369C109.153 209.971 109.038 209.58 108.896 209.198C108.186 207.386 106.979 207.186 104.76 206.684C104.632 206.658 104.513 206.631 104.394 206.61C102.055 206.203 101.289 207.29 99.9782 205.876C98.8549 204.669 95.3097 203.317 94.0349 202.857C94.0349 202.197 93.1434 201.258 92.5818 200.316C91.9221 199.216 93.1404 195.368 93.1404 195.368L93.8358 179.402C94.1006 179.284 94.3807 179.204 94.6679 179.164C94.6679 179.164 97.8119 176.162 97.1016 172.965C96.9569 171.998 96.8815 171.022 96.8758 170.044C97.9099 169.084 99.3334 167.666 99.7375 166.793C100.397 165.369 99.7375 158.472 99.7375 158.472V132.099L104.997 132.631L109.77 133.121L111.223 133.27L115.995 133.751L126.964 134.859L136.847 132.987L141.124 132.179L149.917 130.515V109L159.019 107.497ZM86.6266 36.2036L86.0144 36.1383C86.2165 36.1472 86.4304 36.1858 86.6266 36.2036Z" fill="url(#paint0_linear)"/>
<path d="M137.685 121.466C134.714 125.719 124.031 123.466 124.031 123.466L115.752 115.719L114.637 114.67L116.507 110.7C116.507 110.7 117.101 110.863 118.12 111.155C123.472 112.709 140.194 117.891 137.685 121.466Z" fill="#EFB7B9"/>
<path opacity="0.1" d="M118.114 111.155C117.749 112.426 116.747 114.331 115.752 115.719L114.637 114.67L116.507 110.7C116.507 110.7 117.107 110.863 118.114 111.155Z" fill="black"/>
<path d="M89.7201 66.3837C89.7201 66.3837 82.0889 69.7684 82.4633 78.0801C82.7327 83.4349 83.3162 88.7693 84.2106 94.0557C84.2106 94.0557 82.6505 106.563 89.1465 109.788C95.6426 113.012 101.654 115.663 101.654 115.663C101.654 115.663 111.817 116.756 113.08 117.208C114.343 117.66 118.29 110.753 117.561 109.678C116.833 108.602 107.505 106.346 106.317 104.552C105.128 102.757 102.379 101.648 102.379 101.648C102.379 101.648 99.5414 99.9307 99.3482 98.3795C99.1551 96.8283 99.9039 95.6723 100.094 94.9918C100.284 94.3113 100.766 87.741 100.766 87.741C100.766 87.741 103.969 64.3541 89.7201 66.3837Z" fill="#DCE6F2"/>
<path opacity="0.1" d="M94.757 93.714C94.757 93.714 84.2879 95.4672 85.3012 99.1313C85.3012 99.1313 89.102 95.176 94.757 93.714Z" fill="black"/>
<path opacity="0.1" d="M94.8373 95.1968C94.8373 95.1968 89.0812 99.895 90.2074 100.136C91.3337 100.376 94.8373 95.1968 94.8373 95.1968Z" fill="black"/>
<path opacity="0.1" d="M97.6038 96.8342C97.6038 96.8342 96.0616 99.993 97.0095 99.7791C97.9575 99.5651 97.6038 96.8342 97.6038 96.8342Z" fill="black"/>
<path opacity="0.1" d="M118.5 111.49L117.865 111.309C118.046 110.715 118.096 110.233 117.948 110.011C117.22 108.935 107.898 106.682 106.712 104.884C105.526 103.087 102.775 101.981 102.775 101.981C102.775 101.981 99.9366 100.263 99.7434 98.7123C99.5503 97.1611 100.299 96.0051 100.489 95.3246C100.68 94.6441 101.161 88.0708 101.161 88.0708C101.161 88.0708 104.355 64.6869 90.1064 66.7165C90.1064 66.7165 82.4752 70.1042 82.8466 78.4159C83.1162 83.7708 83.7006 89.1053 84.597 94.3915C84.597 94.3915 83.0368 106.899 89.5329 110.123C96.0289 113.348 102.041 115.998 102.041 115.998C102.041 115.998 112.201 117.089 113.467 117.544C113.945 117.716 114.81 116.827 115.657 115.606L116.138 116.055L124.417 123.799C124.417 123.799 135.1 126.054 138.072 121.802C140.583 118.224 123.864 113.042 118.5 111.49Z" fill="black"/>
<path d="M85.328 35.1873C85.0371 35.2442 84.7584 35.3518 84.5048 35.5053C84.2077 35.7519 84.2077 36.1739 84.1334 36.5424C84.0461 37.055 83.8428 37.5408 83.539 37.9628C83.8772 37.9876 84.2164 37.9316 84.5286 37.7994C84.4777 38.2061 84.378 38.6052 84.2314 38.988C84.4166 38.9928 84.5992 38.944 84.7573 38.8475C84.9154 38.7511 85.0424 38.611 85.1229 38.4442C85.2802 38.1094 85.4046 37.7601 85.4944 37.4012C85.5223 37.2939 85.5707 37.1929 85.637 37.104C85.9104 36.7801 86.4186 36.9257 86.8405 36.9673C87.1917 36.9969 87.5444 36.9321 87.8621 36.7795C88.1798 36.627 88.4509 36.3922 88.6473 36.0996C89.096 35.4191 89.1228 33.6777 88.053 33.4935C86.9356 33.3092 86.2403 34.8485 85.328 35.1873Z" fill="#965D7B"/>
<g opacity="0.1">
<path opacity="0.1" d="M84.4751 35.8708C84.5019 35.7252 84.5197 35.5736 84.5524 35.428C84.2701 35.6747 84.2552 36.0937 84.1809 36.4651C84.1435 36.6794 84.0847 36.8895 84.0056 37.0921C84.2396 36.7192 84.399 36.3044 84.4751 35.8708Z" fill="black"/>
<path opacity="0.1" d="M84.5702 38.3254C84.7182 37.943 84.818 37.5437 84.8674 37.1367C84.5698 37.262 84.2477 37.3178 83.9253 37.3002C83.8315 37.5092 83.717 37.7083 83.5836 37.8945C83.9206 37.9206 84.2589 37.8655 84.5702 37.734C84.5208 38.141 84.421 38.5403 84.273 38.9227C84.4581 38.927 84.6406 38.8781 84.7986 38.7817C84.9567 38.6853 85.0837 38.5454 85.1645 38.3789C85.2386 38.2438 85.2983 38.1014 85.3428 37.9539C85.2556 38.0758 85.1391 38.1737 85.0041 38.2386C84.869 38.3036 84.7198 38.3334 84.5702 38.3254Z" fill="black"/>
<path opacity="0.1" d="M87.1793 36.3047C86.7573 36.2631 86.2462 36.1175 85.9728 36.4414C85.9077 36.531 85.8594 36.6317 85.8302 36.7385C85.8034 36.8158 85.7797 36.896 85.7589 36.9763C86.0412 36.7534 86.4988 36.8722 86.8821 36.9109C87.2332 36.9395 87.5856 36.8743 87.9031 36.7218C88.2206 36.5693 88.4918 36.3351 88.6889 36.0432C88.779 35.8989 88.8461 35.7415 88.888 35.5766C88.6845 35.8285 88.4223 36.0266 88.1244 36.1535C87.8265 36.2805 87.5019 36.3324 87.1793 36.3047Z" fill="black"/>
</g>
<path d="M94.2726 59.7302L98.8044 65.1802L98.2131 70.6807L92.7363 62.1075L94.2726 59.7302Z" fill="#DCE6F2"/>
<path opacity="0.1" d="M98.8014 65.1802L98.2457 70.3538L98.2101 70.6807L93.2682 62.9425L92.7363 62.1075L92.8908 61.8668L94.2697 59.7302L94.5758 60.0987L98.8014 65.1802Z" fill="black"/>
<path d="M101.155 52.3516C99.6216 52.7914 98.1566 54.301 96.8817 56.1345C96.0201 57.3995 95.2495 58.7243 94.5757 60.0987C94.1567 60.9367 93.7883 61.742 93.4822 62.4433L93.2682 62.9425C92.7511 64.1639 92.4629 64.9811 92.4629 64.9811C92.4629 64.9811 80.7249 56.1553 82.5822 55.5609C83.2062 55.3618 84.0264 54.0246 84.8376 52.3397L84.9387 52.1257C85.4528 51.044 85.958 49.8376 86.4067 48.7024C87.3249 46.3696 88.0054 44.343 88.0054 44.343C88.0054 44.343 105.835 51.0143 101.155 52.3516Z" fill="#EFB7B9"/>
<path d="M108.177 43.8467C108.177 43.8467 110.887 48.7499 114.527 48.0813C118.168 47.4127 116.67 45.4484 116.67 45.4484L108.177 43.8467Z" fill="#444053"/>
<path d="M102.926 213.573C100.525 214.669 95.0958 213.573 95.0958 213.573L92.8076 213.43C89.836 213.24 84.8614 212.919 83.1022 212.776C80.5347 212.565 81.1647 211.513 81.1647 211.513V205.157L93.6218 202.001C93.6218 202.001 98.5459 203.686 99.895 205.157C101.176 206.559 101.925 205.481 104.21 205.885C104.323 205.906 104.442 205.929 104.566 205.959C106.736 206.455 107.913 206.652 108.608 208.449C108.748 208.827 108.86 209.214 108.944 209.608C109.586 212.503 105.324 212.482 102.926 213.573Z" fill="#A36468"/>
<path opacity="0.1" d="M108.608 208.449C108.161 208.728 107.692 208.969 107.205 209.169C105.571 209.914 104.017 210.824 102.364 211.528C100.712 212.232 98.9322 212.735 97.1432 212.601C96.2072 212.532 95.2503 212.304 94.3558 212.571C93.8027 212.785 93.2817 213.074 92.8076 213.43C89.836 213.24 84.8614 212.919 83.1022 212.776C80.5347 212.565 81.1647 211.513 81.1647 211.513V210.77C81.2568 210.77 81.3608 210.744 81.4797 210.735C82.0947 210.725 82.7071 210.816 83.2924 211.005C84.5821 211.356 85.8658 211.7 87.1555 212.045C87.2616 211.645 87.448 211.27 87.7035 210.944C87.9589 210.618 88.278 210.348 88.6414 210.149C89.3775 209.758 90.2037 209.569 91.0365 209.599C93.0364 209.626 94.9294 210.574 96.9263 210.669C97.4846 210.721 98.0467 210.626 98.5578 210.396C98.8312 210.259 99.0718 210.06 99.3393 209.908C99.7673 209.701 100.22 209.549 100.685 209.454C101.995 209.128 103.281 208.713 104.534 208.212C104.89 208.072 105.306 207.819 105.259 207.439C105.196 206.934 104.403 206.874 104.195 206.411C104.158 206.327 104.141 206.236 104.145 206.145C104.15 206.054 104.175 205.965 104.219 205.885C104.332 205.906 104.451 205.929 104.575 205.959C106.736 206.455 107.913 206.652 108.608 208.449Z" fill="black"/>
<path d="M100.388 227.48C97.5652 228.77 91.1762 227.48 91.1762 227.48L88.4868 227.322C85.0041 227.099 79.138 226.728 77.0668 226.553C74.0446 226.303 74.7875 225.067 74.7875 225.067V217.575L89.4467 213.861C89.4467 213.861 95.2414 215.843 96.8283 217.575C98.3349 219.225 99.2056 217.956 101.907 218.431C102.041 218.455 102.18 218.485 102.326 218.517C104.878 219.112 106.263 219.335 107.08 221.45C107.246 221.895 107.378 222.351 107.476 222.814C108.213 226.22 103.211 226.193 100.388 227.48Z" fill="#A36468"/>
<path opacity="0.1" d="M107.075 221.45C106.549 221.778 105.998 222.062 105.425 222.297C103.503 223.174 101.672 224.244 99.7286 225.073C97.7851 225.902 95.6901 226.49 93.5832 226.336C92.4837 226.256 91.3574 225.979 90.3144 226.3C89.6608 226.555 89.0458 226.899 88.4868 227.322C85.0041 227.099 79.138 226.728 77.0668 226.553C74.0446 226.303 74.7875 225.067 74.7875 225.067V224.193C74.9106 224.173 75.0345 224.159 75.159 224.152C75.8829 224.138 76.604 224.246 77.2926 224.47L81.8363 225.694C81.9628 225.222 82.1844 224.78 82.4874 224.396C82.7904 224.013 83.1684 223.695 83.5985 223.462C84.4646 223 85.4378 222.777 86.4186 222.814C88.7721 222.847 90.9979 223.961 93.3485 224.074C94.0031 224.134 94.6621 224.025 95.2622 223.756C95.5861 223.593 95.8565 223.358 96.1834 223.183C96.686 222.937 97.2184 222.757 97.7673 222.648C99.2998 222.261 100.805 221.773 102.272 221.186C102.691 221.019 103.182 220.722 103.125 220.277C103.051 219.682 102.118 219.611 101.871 219.064C101.83 218.965 101.811 218.859 101.816 218.752C101.821 218.645 101.85 218.54 101.901 218.446C102.035 218.47 102.174 218.5 102.32 218.532C104.873 219.103 106.257 219.335 107.075 221.45Z" fill="black"/>
<path d="M93.9992 176.073L93.2058 194.744C93.2058 194.744 92.0172 198.557 92.662 199.647C93.3068 200.738 94.3945 201.826 93.9992 202.47C93.604 203.115 88.8494 210.087 87.313 207.412C85.7767 204.738 84.2611 193.148 84.2611 193.148L85.6786 178.834L93.9992 176.073Z" fill="#444053"/>
<path d="M97.4404 129.555L99.6454 132.503V158.142C99.6454 158.142 100.29 164.977 99.6454 166.389C99.0005 167.8 95.7317 170.623 95.7317 170.623L92.9829 156.508L93.5773 141.575L97.4404 129.555Z" fill="#444053"/>
<path opacity="0.1" d="M93.9992 176.073L93.2058 194.744C93.2058 194.744 92.0172 198.557 92.662 199.647C93.3068 200.738 94.3945 201.826 93.9992 202.47C93.604 203.115 88.8494 210.087 87.313 207.412C85.7767 204.738 84.2611 193.148 84.2611 193.148L85.6786 178.834L93.9992 176.073Z" fill="black"/>
<path opacity="0.1" d="M97.4404 129.555L99.6454 132.503V158.142C99.6454 158.142 100.29 164.977 99.6454 166.389C99.0005 167.8 95.7317 170.623 95.7317 170.623L92.9829 156.508L93.5773 141.575L97.4404 129.555Z" fill="black"/>
<path d="M99.6454 118.619V132.488L97.17 143.284C97.17 143.284 96.3766 169.337 97.069 172.504C97.7614 175.672 94.6916 178.647 94.6916 178.647C94.6916 178.647 92.9086 178.846 92.9086 180.231C92.9086 181.615 89.937 185.58 89.937 185.58L90.0351 193.306C90.0351 193.306 91.3248 207.769 89.3427 210.541C87.3606 213.314 90.0351 213.712 90.0351 213.712C87.5597 221.834 75.6731 219.953 74.6003 219.061C73.5275 218.17 74.6003 200.637 74.6003 200.637C74.6003 200.637 77.257 173.892 79.3371 172.703C81.4173 171.515 79.4382 170.029 80.1305 168.246C80.8229 166.463 79.4381 161.61 79.4381 161.61C79.4381 161.61 78.8438 155.863 77.358 153.091C75.8722 150.318 76.0683 142.69 76.0683 142.69C76.0683 142.69 71.908 137.142 70.6718 134.963C69.4356 132.785 68.6392 127.139 68.9363 122.878C69.1384 119.998 70.651 115.805 71.6108 113.392C72.0714 112.236 72.4043 111.487 72.4043 111.487L72.6866 111.562L88.9177 115.811L99.6454 118.619Z" fill="#444053"/>
<path opacity="0.1" d="M101.155 52.3516C99.6216 52.7914 98.1566 54.301 96.8817 56.1345H96.5489C94.6803 56.1358 92.8445 55.6438 91.2269 54.7083C89.6094 53.7727 88.2675 52.4267 87.3368 50.8063C86.9479 50.1349 86.6349 49.4223 86.4037 48.6816C87.3219 46.3488 88.0025 44.3222 88.0025 44.3222C88.0025 44.3222 105.835 51.0143 101.155 52.3516Z" fill="black"/>
<path d="M107.173 44.9224C107.175 46.5484 106.805 48.1533 106.089 49.6134C105.374 51.0736 104.333 52.3501 103.047 53.3446C101.76 54.339 100.263 55.025 98.6694 55.3495C97.0762 55.6741 95.4297 55.6286 93.8568 55.2165C92.2839 54.8045 90.8266 54.0369 89.5971 52.9729C88.3675 51.9089 87.3987 50.5769 86.7651 49.0794C86.1315 47.582 85.85 45.9591 85.9425 44.3358C86.0349 42.7124 86.4987 41.132 87.2982 39.7161C87.6202 39.1408 87.9964 38.5975 88.4215 38.0936C89.1222 37.2587 89.9459 36.5353 90.8642 35.9481C92.4152 34.9624 94.1954 34.396 96.0309 34.3041C97.8663 34.2122 99.6942 34.598 101.336 35.4238C102.978 36.2496 104.377 37.4872 105.398 39.0156C106.418 40.544 107.024 42.311 107.158 44.1439C107.164 44.4054 107.173 44.6639 107.173 44.9224Z" fill="#EFB7B9"/>
<path opacity="0.1" d="M98.2457 70.3538L98.2101 70.6807L93.2682 62.9544C92.7511 64.1758 92.4629 64.993 92.4629 64.993C92.4629 64.993 80.7249 56.1553 82.5822 55.561C83.2062 55.3619 84.0264 54.0246 84.8376 52.3397L84.9387 52.1257C85.8005 54.6932 90.8077 59.8253 92.8908 61.8817C93.1315 62.1194 93.3306 62.3155 93.4851 62.4582L93.8031 62.7553L93.9695 62.9217C94.7273 63.7033 97.9248 67.1504 98.2457 70.3538Z" fill="black"/>
<path d="M101.939 96.5697L101.399 113.975L101.304 117.074C101.304 117.074 94.8967 116.48 88.9177 115.826C84.1037 115.3 79.566 114.732 78.8676 114.4C77.9761 113.981 76.0654 113.657 74.5587 113.452C73.3938 113.294 72.4786 113.211 72.4786 113.211C72.4786 113.211 72.1368 113.312 71.6108 113.407C70.4638 113.615 68.449 113.784 67.2752 112.765C65.7745 111.461 69.7179 106.721 70.7015 105.583L70.9185 105.336L70.547 101.904L69.5812 93.0037C69.5812 93.0037 68.9869 87.8776 68.0954 85.1289C67.857 84.3474 67.6851 83.5471 67.5813 82.7367C67.2501 80.2262 67.4197 77.6749 68.0805 75.2303C68.3628 74.1916 68.542 73.1275 68.6154 72.0536C68.764 69.3048 77.1589 58.6812 79.2391 57.7154C80.1748 57.279 80.9278 56.5282 81.3668 55.5936C81.5117 55.2998 81.6205 54.9895 81.6907 54.6695C82.5822 50.8063 84.8377 52.3397 84.8377 52.3397C85.3815 55.3618 93.8002 63.3615 93.8002 63.3615L93.9666 63.5279C94.8016 64.3838 98.5221 68.4014 98.2576 71.8307C98.2048 73.1071 98.3954 74.3818 98.8193 75.5869C100.532 80.9789 101.516 86.5755 101.746 92.2281L101.939 96.5697Z" fill="#DCE6F2"/>
<path opacity="0.1" d="M90.0113 75.9019C90.0113 75.9019 87.9311 80.9537 86.371 81.7709C84.8109 82.5881 90.7542 83.4945 90.0113 75.9019Z" fill="black"/>
<path opacity="0.1" d="M91.5714 85.3369C91.5714 85.3369 86.8168 85.9312 86.8168 86.8227C86.8168 87.7142 91.5714 85.3369 91.5714 85.3369Z" fill="black"/>
<path opacity="0.1" d="M96.5489 91.1316C96.5489 91.1316 89.6398 105.841 87.7083 106.287C85.7767 106.733 96.5489 91.1316 96.5489 91.1316Z" fill="black"/>
<path opacity="0.1" d="M93.6694 64.1074L87.9549 66.5917L81.0577 56.1731C81.2026 55.8793 81.3114 55.569 81.3816 55.2489C82.2731 51.3858 84.5286 52.9192 84.5286 52.9192C85.0724 55.9413 93.4911 63.941 93.4911 63.941L93.6694 64.1074Z" fill="black"/>
<path d="M93.9666 63.5131L88.2521 65.9974L81.3549 55.5788C81.4998 55.2849 81.6086 54.9746 81.6788 54.6546C82.5703 50.7914 84.8258 52.3248 84.8258 52.3248C85.3696 55.347 93.7883 63.3467 93.7883 63.3467L93.9666 63.5131Z" fill="#DCE6F2"/>
<path opacity="0.1" d="M101.304 117.074C101.304 117.074 94.8967 116.48 88.9177 115.826L99.6454 118.634V121.903C99.1759 122.328 98.7687 122.548 98.5043 122.435C97.2681 121.915 87.1793 120.281 87.1793 120.281C87.1793 120.281 81.3192 117.309 74.9956 113.743C74.8421 113.658 74.6933 113.565 74.5498 113.464C73.8125 112.963 73.1771 112.327 72.6777 111.588C71.5098 109.898 70.9393 107.725 70.6926 105.595C70.5539 104.374 70.5023 103.144 70.5381 101.916C70.5687 100.523 70.6958 99.1337 70.9185 97.7584C70.3069 92.4315 70.0092 87.0733 70.027 81.7115C70.1012 73.3909 77.9018 70.4192 77.9018 70.4192C92.24 69.1563 87.7945 92.3351 87.7945 92.3351C87.7945 92.3351 86.9654 98.8728 86.7395 99.5414C86.5137 100.21 85.7024 101.324 85.8124 102.885C85.9223 104.445 88.6622 106.311 88.6622 106.311C88.6622 106.311 91.3367 107.565 92.4391 109.422C93.2415 110.792 98.4538 112.649 101.399 113.975L101.304 117.074Z" fill="black"/>
<path opacity="0.1" d="M106.106 38.3254C106.111 38.8148 106.01 39.2996 105.809 39.7458C105.656 40.11 105.48 40.4634 105.28 40.8037C104.967 41.4298 104.523 41.9812 103.978 42.4203C103.292 42.9106 102.424 43.0473 101.601 43.2464C100.778 43.4455 99.9218 43.7635 99.4522 44.4648C99.1978 44.9156 99.0276 45.4091 98.95 45.9209C98.8713 46.4323 98.6671 46.9163 98.3557 47.3295C98.1935 47.5312 97.969 47.6734 97.7172 47.7336C97.4655 47.7939 97.2009 47.7688 96.965 47.6623C96.7164 47.4948 96.528 47.2521 96.4271 46.9699C96.0883 46.2062 96.0021 45.3593 95.8654 44.5361C95.7287 43.713 95.5356 42.8661 95.0304 42.2034C94.5252 41.5407 93.6308 41.1039 92.8373 41.3624C92.5718 41.4646 92.3296 41.6195 92.1253 41.8176C91.9211 42.0157 91.759 42.2531 91.6487 42.5154C91.4291 43.0406 91.2783 43.5919 91.2 44.1558C90.8315 46.1725 90.3966 48.1774 89.8954 50.1704C89.8801 50.2521 89.8466 50.3293 89.7973 50.3962C89.7183 50.475 89.6117 50.5197 89.5002 50.521C88.8345 50.6102 88.1956 50.1436 87.524 50.1941C87.4548 50.1988 87.3862 50.2097 87.319 50.2268C86.2331 48.3397 85.7537 46.1644 85.9456 43.9957C86.1375 41.827 86.9914 39.7696 88.3917 38.1025L88.4452 38.0876C88.892 37.9291 89.298 37.6733 89.6339 37.3388C90.0629 36.9095 90.4601 36.4497 90.8226 35.9629L91.0603 35.6658C91.7433 34.8429 92.5214 34.1037 93.3782 33.4638C93.6121 33.2722 93.8803 33.1269 94.1686 33.0358C94.4154 32.9878 94.6682 32.9798 94.9175 33.0121C95.9438 33.1353 96.9784 33.174 98.011 33.128C98.7305 33.0149 99.4557 32.9415 100.183 32.9081C102.064 32.9616 103.669 34.2899 104.858 35.746C105.497 36.4919 106.067 37.3507 106.106 38.3254Z" fill="black"/>
<path d="M85.9104 39.9984C85.4973 40.676 84.7515 41.1366 84.4721 41.8795C84.062 42.9582 84.7544 44.3014 84.1185 45.2642C83.9075 45.5881 83.5598 45.8288 83.441 46.2003C83.2389 46.8273 83.7916 47.4959 83.649 48.1407C83.5063 48.7856 82.6565 49.3294 82.8823 49.9594C83.0158 50.2341 83.2499 50.447 83.5361 50.5537C83.9863 50.812 84.5046 50.9271 85.0219 50.8836C85.8331 50.7498 86.4364 49.9534 87.2595 49.894C87.9282 49.8465 88.5671 50.31 89.2327 50.2239C89.3443 50.22 89.4503 50.1744 89.5299 50.0961C89.5804 50.0299 89.614 49.9524 89.6279 49.8702C90.1272 47.8792 90.563 45.8744 90.9355 43.8556C91.0114 43.2916 91.1612 42.7401 91.3812 42.2153C91.4924 41.9535 91.6548 41.7166 91.859 41.5186C92.0631 41.3205 92.3048 41.1654 92.5699 41.0623C93.3633 40.8067 94.2548 41.2406 94.763 41.9032C95.2711 42.5659 95.4643 43.4128 95.601 44.236C95.7377 45.0591 95.8238 45.9061 96.1596 46.6698C96.2617 46.953 96.4511 47.1965 96.7005 47.3651C97.1462 47.6237 97.7465 47.4186 98.0882 47.0323C98.4013 46.6189 98.6057 46.1336 98.6826 45.6208C98.7601 45.1099 98.9303 44.6174 99.1848 44.1676C99.6543 43.4663 100.513 43.1484 101.333 42.9493C102.153 42.7502 103.018 42.6105 103.711 42.1202C104.255 41.6815 104.699 41.1313 105.012 40.5066C105.452 39.7399 105.862 38.9078 105.826 38.0252C105.788 37.0624 105.217 36.2036 104.608 35.4548C103.419 33.9987 101.812 32.6703 99.9307 32.6198C99.2029 32.6502 98.4775 32.7237 97.7584 32.8397C96.7257 32.8861 95.691 32.8464 94.6649 32.7208C94.4154 32.691 94.1628 32.7 93.916 32.7476C93.6274 32.8357 93.3595 32.9813 93.1285 33.1755C92.2709 33.8144 91.4919 34.5526 90.8077 35.3745C90.3665 35.9595 89.8881 36.5153 89.3754 37.0387C89.0393 37.3737 88.6334 37.6304 88.1867 37.7905C87.8895 37.8737 87.5924 37.8143 87.3101 37.9064C86.4334 38.1827 86.3175 39.3268 85.9104 39.9984Z" fill="#965D7B"/>
<path opacity="0.1" d="M114.527 48.0783C112.15 48.5152 110.18 46.5925 109.089 45.1899C108.754 44.7639 108.449 44.3151 108.177 43.8467L116.337 45.386L116.667 45.4484C116.667 45.4484 118.168 47.4127 114.527 48.0783Z" fill="black"/>
<g opacity="0.1">
<path opacity="0.1" d="M83.649 47.2909C83.6822 46.9022 83.6232 46.5112 83.4766 46.1497C83.4766 46.1795 83.4499 46.2092 83.441 46.2389C83.3132 46.6371 83.4855 47.0502 83.5955 47.4632C83.6191 47.4077 83.637 47.35 83.649 47.2909Z" fill="black"/>
<path opacity="0.1" d="M84.3562 42.4263C84.3257 42.8372 84.3336 43.2501 84.38 43.6595C84.4105 43.2486 84.4025 42.8357 84.3562 42.4263Z" fill="black"/>
<path opacity="0.1" d="M104.994 39.6478C104.682 40.2738 104.238 40.8252 103.693 41.2643C103.006 41.7547 102.142 41.8914 101.315 42.0905C100.489 42.2896 99.6365 42.6075 99.167 43.3088C98.9129 43.7599 98.7428 44.2532 98.6648 44.765C98.5874 45.2776 98.3831 45.7628 98.0704 46.1765C97.7287 46.5628 97.1284 46.7708 96.6827 46.5093C96.4332 46.3407 96.2439 46.0972 96.1418 45.8139C95.806 45.0502 95.7169 44.2063 95.5831 43.3802C95.4494 42.554 95.2503 41.7101 94.7451 41.0474C94.24 40.3847 93.3455 39.9479 92.5521 40.2064C92.2867 40.3091 92.0448 40.4641 91.8406 40.6622C91.6364 40.8603 91.4741 41.0974 91.3634 41.3594C91.1434 41.8843 90.9935 42.4358 90.9176 42.9998C90.5472 45.0185 90.1113 47.0234 89.6101 49.0144C89.5962 49.0965 89.5626 49.174 89.5121 49.2403C89.4325 49.3186 89.3265 49.3642 89.2149 49.368C88.5492 49.4542 87.9103 48.9906 87.2417 49.0382C86.4186 49.0976 85.8153 49.894 85.0041 50.0248C84.4866 50.0712 83.9675 49.9559 83.5182 49.6949C83.3117 49.6061 83.1263 49.4744 82.9744 49.3086C82.9049 49.4082 82.8589 49.5222 82.8398 49.6422C82.8208 49.7621 82.8292 49.8848 82.8645 50.001C82.9954 50.2777 83.2304 50.4913 83.5182 50.5953C83.9675 50.8563 84.4866 50.9716 85.0041 50.9252C85.8153 50.7944 86.4186 49.998 87.2417 49.9386C87.9103 49.8911 88.5492 50.3546 89.2149 50.2685C89.3265 50.2646 89.4325 50.219 89.5121 50.1407C89.5626 50.0744 89.5962 49.9969 89.6101 49.9148C90.1094 47.9337 90.5452 45.9288 90.9176 43.9002C90.9935 43.3362 91.1434 42.7847 91.3634 42.2598C91.4741 41.9978 91.6364 41.7607 91.8406 41.5626C92.0448 41.3645 92.2867 41.2095 92.5521 41.1068C93.3455 40.8483 94.237 41.2851 94.7451 41.9478C95.2533 42.6105 95.4465 43.4574 95.5831 44.2806C95.7198 45.1037 95.806 45.9506 96.1418 46.7144C96.2439 46.9976 96.4332 47.2411 96.6827 47.4097C97.1284 47.6683 97.7287 47.4632 98.0704 47.0769C98.3831 46.6633 98.5874 46.178 98.6648 45.6654C98.7428 45.1536 98.9129 44.6603 99.167 44.2093C99.6365 43.5079 100.495 43.1929 101.315 42.9909C102.136 42.7888 103 42.6551 103.693 42.1648C104.238 41.7256 104.682 41.1742 104.994 40.5482C105.434 39.7845 105.844 38.9524 105.809 38.0698C105.803 37.9563 105.791 37.8433 105.773 37.731C105.63 38.4112 105.366 39.0603 104.994 39.6478Z" fill="black"/>
</g>
<path opacity="0.1" d="M105.82 39.7369C106.583 41.0918 107.034 42.5991 107.143 44.1498C104.495 42.664 102.005 41.0326 100.748 40.465C98.5578 39.4754 90.3679 39.624 87.2893 39.7161C87.6113 39.1408 87.9874 38.5975 88.4125 38.0936C89.116 37.258 89.9427 36.5346 90.8642 35.9481C92.0844 35.1736 93.4499 34.6562 94.8769 34.4273C96.304 34.1985 97.7627 34.2631 99.164 34.6171C100.565 34.9712 101.88 35.6073 103.027 36.4866C104.174 37.3659 105.129 38.4698 105.835 39.731L105.82 39.7369Z" fill="black"/>
<path opacity="0.1" d="M115.27 46.8184C113.841 47.2582 111.508 46.4083 109.089 45.1899C108.754 44.7639 108.449 44.3151 108.177 43.8467L116.337 45.386C116.878 45.7545 117.015 46.2805 115.27 46.8184Z" fill="black"/>
<path d="M97.1819 29.4342C97.1819 29.4342 89.3813 28.9885 87.1882 33.2231L86.8346 36.9763L86.2403 36.9109L86.1214 39.4635C86.1214 39.4635 98.0437 38.9435 100.757 40.1678C103.47 41.3921 111.9 47.5613 115.279 46.5212C118.658 45.4811 114.982 44.5153 114.982 44.5153C114.982 44.5153 110.331 42.5451 110.331 40.9999C110.331 39.4546 109.178 31.2915 97.1819 29.4342Z" fill="#444053"/>
<path opacity="0.1" d="M82.1364 168.567C82.1364 168.567 87.1139 173.396 89.2684 173.024C89.2684 173.024 83.1765 172.504 82.1364 168.567Z" fill="black"/>
<path opacity="0.1" d="M81.0963 170.805C81.0963 170.805 81.5421 173.289 82.7308 173.045C83.9194 172.801 81.0963 170.805 81.0963 170.805Z" fill="black"/>
<path opacity="0.1" d="M88.8969 212.324C88.8969 212.324 81.8303 217.822 83.022 217.971C84.2136 218.119 88.8969 212.324 88.8969 212.324Z" fill="black"/>
<path d="M98.3497 103.214L121.231 99.4909V121.154L99.4909 120.016L98.3497 103.214Z" fill="#6C63FF"/>
<path opacity="0.05" d="M98.3497 103.214L121.231 99.4909V121.154L99.4909 120.016L98.3497 103.214Z" fill="black"/>
<path d="M121.231 99.4909L148.672 101.544L147.153 120.396L121.231 121.154V99.4909Z" fill="#6C63FF"/>
<path opacity="0.1" d="M121.231 99.4909L148.672 101.544L147.153 120.396L121.231 121.154V99.4909Z" fill="black"/>
<path d="M129.668 92.8789L121.231 99.4909L148.672 101.544L153.156 94.7778L129.668 92.8789Z" fill="#6C63FF"/>
<path d="M90.0648 95.9932L110.664 93.4852L121.231 99.4909L98.3497 103.214L90.0648 95.9932Z" fill="#6C63FF"/>
<path d="M126.248 105.116V134.735L115.529 133.635L110.866 133.16L109.446 133.011L104.786 132.533L98.3497 131.873V103.214L121.228 104.771L126.248 105.116Z" fill="#6C63FF"/>
<path d="M148.672 101.544V130.429L140.081 132.078L135.902 132.88L126.248 134.735V105.116L148.672 101.544Z" fill="#6C63FF"/>
<path opacity="0.05" d="M148.672 101.544V130.429L140.081 132.078L135.902 132.88L126.248 134.735V105.116L148.672 101.544Z" fill="black"/>
<path d="M90.0648 109.449L98.3497 103.214L126.248 105.116L122.141 112.034L90.0648 109.449Z" fill="#6C63FF"/>
<path opacity="0.1" d="M90.0648 109.449L98.3497 103.214L126.248 105.116L122.141 112.034L90.0648 109.449Z" fill="white"/>
<path d="M148.672 101.544L126.248 105.116L133.546 111.654L157.566 107.624L148.672 101.544Z" fill="#6C63FF"/>
<path opacity="0.1" d="M148.672 101.544L126.248 105.116L133.546 111.654L157.566 107.624L148.672 101.544Z" fill="white"/>
<path opacity="0.1" d="M140.081 132.078L135.902 132.88V126.708L139.816 125.722L140.081 132.078Z" fill="white"/>
<path opacity="0.1" d="M115.529 129.552V133.635L110.866 133.16V129.552H115.529Z" fill="white"/>
<path opacity="0.1" d="M109.446 130.839V133.011L104.786 132.533V130.839H109.446Z" fill="white"/>
<path opacity="0.1" d="M123.442 127.386C120.248 131.472 109.698 128.649 109.698 128.649L101.859 120.471L100.795 119.362L102.876 115.499C102.876 115.499 103.47 115.695 104.462 116.04C109.716 117.876 126.132 123.948 123.442 127.386Z" fill="black"/>
<path d="M123.145 126.791C119.951 130.877 109.401 128.054 109.401 128.054L101.562 119.876L100.498 118.768L102.578 114.905C102.578 114.905 103.173 115.101 104.165 115.446C109.419 117.282 125.835 123.353 123.145 126.791Z" fill="#EFB7B9"/>
<path opacity="0.1" d="M104.153 115.446C103.72 116.694 102.617 118.542 101.55 119.876L100.486 118.768L102.567 114.905C102.567 114.905 103.164 115.101 104.153 115.446Z" fill="black"/>
<path d="M78.199 69.2306C78.199 69.2306 70.3984 72.2022 70.3241 80.5228C70.3064 85.8847 70.604 91.2429 71.2156 96.5697C71.2156 96.5697 68.9869 108.976 75.3016 112.542C81.6164 116.108 87.4854 119.08 87.4854 119.08C87.4854 119.08 97.5741 120.714 98.8133 121.234C100.052 121.754 104.358 115.068 103.69 113.954C103.021 112.84 93.8358 110.091 92.7452 108.233C91.6546 106.376 88.9682 105.125 88.9682 105.125C88.9682 105.125 86.2284 103.256 86.1184 101.696C86.0085 100.136 86.8168 99.0214 87.0456 98.3527C87.2744 97.6841 88.1035 91.1465 88.1035 91.1465C88.1035 91.1465 92.5372 67.9527 78.199 69.2306Z" fill="#DCE6F2"/>
<path opacity="0.1" d="M81.7649 96.7778C81.7649 96.7778 71.2156 97.9664 72.0328 101.681C72.0328 101.681 76.0415 97.9337 81.7649 96.7778Z" fill="black"/>
<path opacity="0.1" d="M81.7649 98.2636C81.7649 98.2636 75.7771 102.647 76.8766 102.944C77.9761 103.241 81.7649 98.2636 81.7649 98.2636Z" fill="black"/>
<path opacity="0.1" d="M84.4394 100.047C84.4394 100.047 82.7308 103.119 83.6965 102.959C84.6623 102.798 84.4394 100.047 84.4394 100.047Z" fill="black"/>
<path d="M194.278 33.3984C194.278 33.3984 182.985 32.7179 184.305 40.6403C184.305 40.6403 184.04 42.0399 185.309 42.6759C185.309 42.6759 185.33 42.0815 186.468 42.2866C186.873 42.3548 187.285 42.3748 187.695 42.346C188.251 42.309 188.779 42.0908 189.199 41.7249C189.199 41.7249 192.376 40.4144 193.612 35.22C193.612 35.22 194.527 34.0848 194.503 33.7936L192.596 34.6108C192.596 34.6108 193.246 35.9867 192.732 37.1308C192.732 37.1308 192.673 34.6613 192.304 34.7178C192.23 34.7178 191.315 35.1962 191.315 35.1962C191.315 35.1962 192.435 37.5914 191.588 39.3357C191.588 39.3357 191.909 36.3819 190.964 35.3686L189.621 36.1531C189.621 36.1531 190.932 38.6285 190.043 40.6492C190.043 40.6492 190.272 37.5498 189.339 36.3433L188.12 37.2912C188.12 37.2912 189.354 39.7339 188.602 41.41C188.602 41.41 188.504 37.8024 187.856 37.529C187.856 37.529 186.792 38.468 186.632 38.8543C186.632 38.8543 187.473 40.6373 186.95 41.5615C186.95 41.5615 186.629 39.1574 186.355 39.1456C186.355 39.1456 185.294 40.7384 185.184 41.82C185.236 40.8116 185.55 39.8342 186.097 38.9851C185.485 39.1008 184.921 39.3931 184.474 39.8261C184.474 39.8261 184.638 38.6998 186.358 38.6017C186.358 38.6017 187.25 37.3923 187.47 37.318C187.47 37.318 185.758 37.1753 184.721 37.636C184.721 37.636 185.633 36.5751 187.785 37.0416L188.973 36.061C188.973 36.061 186.721 35.7638 185.764 36.0937C185.764 36.0937 186.863 35.1546 189.297 35.8381L190.605 35.0566C190.605 35.0566 188.685 34.6405 187.541 34.7921C187.541 34.7921 188.747 34.1413 190.988 34.8456L191.924 34.4266C191.924 34.4266 190.516 34.1502 190.105 34.1056C189.695 34.0611 189.672 33.9481 189.672 33.9481C190.563 33.7998 191.477 33.9027 192.313 34.2453C192.313 34.2453 194.319 33.5232 194.278 33.3984Z" fill="#6C63FF"/>
<path opacity="0.1" d="M228.588 73.0224C228.588 73.0224 217.296 72.3419 218.615 80.2643C218.615 80.2643 218.351 81.6639 219.62 82.2999C219.62 82.2999 219.641 81.7055 220.782 81.9106C221.187 81.9788 221.599 81.9987 222.009 81.97C222.558 81.9302 223.08 81.7133 223.495 81.3519C223.495 81.3519 226.675 80.0384 227.911 74.844C227.911 74.844 228.823 73.7118 228.787 73.4206L226.88 74.2348C226.88 74.2348 227.53 75.6107 227.019 76.7548C227.019 76.7548 226.957 74.2853 226.591 74.3418C226.517 74.3418 225.599 74.8202 225.599 74.8202C225.599 74.8202 226.722 77.2183 225.875 78.9597C225.875 78.9597 226.196 76.0059 225.248 74.9926L223.92 75.7682C223.92 75.7682 225.23 78.2436 224.342 80.2643C224.342 80.2643 224.571 77.1649 223.637 75.9584L222.422 76.9093C222.422 76.9093 223.652 79.349 222.903 81.025C222.903 81.025 222.805 77.4174 222.158 77.144C222.158 77.144 221.094 78.0831 220.93 78.4694C220.93 78.4694 221.774 80.2524 221.251 81.1766C221.251 81.1766 220.93 78.7725 220.657 78.7606C220.657 78.7606 219.596 80.3534 219.486 81.4351C219.539 80.4266 219.855 79.4493 220.401 78.6002C219.789 78.7161 219.224 79.0084 218.776 79.4411C218.776 79.4411 218.942 78.3149 220.663 78.2168C220.663 78.2168 221.54 77.0074 221.774 76.9331C221.774 76.9331 220.063 76.7904 219.026 77.251C219.026 77.251 219.938 76.1902 222.086 76.6716L223.275 75.6909C223.275 75.6909 221.019 75.3937 220.066 75.7236C220.066 75.7236 221.165 74.7846 223.599 75.468L224.906 74.6865C224.906 74.6865 222.984 74.2734 221.84 74.422C221.84 74.422 223.049 73.7712 225.29 74.4755L226.226 74.0565C226.226 74.0565 224.817 73.7801 224.404 73.7356C223.991 73.691 223.97 73.5781 223.97 73.5781C224.862 73.4297 225.778 73.5326 226.615 73.8752C226.615 73.8752 228.624 73.1472 228.588 73.0224Z" fill="#6C63FF"/>
<path opacity="0.1" d="M159.988 65.9885C159.988 65.9885 162.588 54.9666 154.553 54.928C154.553 54.928 153.218 54.4288 152.377 55.5699C152.377 55.5699 152.951 55.6917 152.562 56.7793C152.427 57.1639 152.337 57.5628 152.294 57.968C152.237 58.5204 152.361 59.0764 152.648 59.5519C152.648 59.5519 153.4 62.9098 158.294 65.0138C158.294 65.0138 159.257 66.1073 159.548 66.1192L159.072 64.1015C159.072 64.1015 157.604 64.5086 156.564 63.8043C156.564 63.8043 159.01 64.1639 159.013 63.8043C159.013 63.73 158.716 62.7464 158.716 62.7464C158.716 62.7464 156.163 63.4418 154.588 62.3096C154.588 62.3096 157.444 63.1298 158.606 62.372L158.071 60.9099C158.071 60.9099 155.397 61.7806 153.566 60.5593C153.566 60.5593 156.582 61.3141 157.931 60.6009L157.203 59.2399C157.203 59.2399 154.588 60.0363 153.064 59.011C153.064 59.011 156.63 59.5281 157.016 58.9397C157.016 58.9397 156.273 57.7303 155.92 57.5044C155.92 57.5044 154.03 58.0334 153.198 57.3588C153.198 57.3588 155.619 57.4509 155.676 57.1954C155.676 57.1954 154.288 55.8789 153.23 55.5818C154.216 55.8062 155.127 56.2835 155.872 56.9665C155.861 56.3438 155.669 55.7376 155.319 55.2222C155.319 55.2222 156.401 55.5788 156.211 57.3023C156.211 57.3023 157.251 58.3721 157.284 58.6158C157.284 58.6158 157.714 56.9547 157.438 55.8522C157.438 55.8522 158.33 56.9339 157.489 58.9694L158.249 60.3215C158.249 60.3215 158.939 58.1522 158.763 57.1538C158.763 57.1538 159.503 58.3959 158.413 60.6781L158.963 62.1016C158.963 62.1016 159.697 60.277 159.744 59.1299C159.744 59.1299 160.181 60.4315 159.102 62.5206L159.358 63.5131C159.358 63.5131 159.869 62.1729 159.982 61.7747C160.095 61.3765 160.211 61.3735 160.211 61.3735C160.206 62.2776 159.95 63.1625 159.471 63.9291C159.471 63.9291 159.86 66.0033 159.988 65.9885Z" fill="#6C63FF"/>
<path opacity="0.1" d="M135.258 69.7447C135.258 69.7447 126.188 62.9604 122.946 70.3093C122.946 70.3093 121.957 71.3345 122.667 72.5618C122.667 72.5618 123.006 72.0833 123.855 72.8768C124.156 73.1568 124.49 73.4002 124.848 73.6019C125.333 73.8721 125.894 73.9765 126.444 73.899C126.444 73.899 129.82 74.5498 133.706 70.8917C133.706 70.8917 135.094 70.446 135.225 70.1845L133.178 69.8249C133.178 69.8249 132.964 71.3315 131.909 72.0061C131.909 72.0061 133.213 69.9081 132.874 69.7565C132.806 69.7238 131.784 69.6079 131.784 69.6079C131.784 69.6079 131.403 72.229 129.739 73.2185C129.739 73.2185 131.632 70.9274 131.397 69.5604L129.843 69.4772C129.843 69.4772 129.579 72.2676 127.725 73.4681C127.725 73.4681 129.617 71.0046 129.507 69.4831L127.968 69.6079C127.968 69.6079 127.656 72.3211 126.108 73.3077C126.108 73.3077 128.007 70.2409 127.618 69.6585C127.618 69.6585 126.212 69.8576 125.864 70.0894C125.864 70.0894 125.594 72.0328 124.643 72.5261C124.643 72.5261 125.698 70.342 125.484 70.1904C125.484 70.1904 123.722 70.9363 123.029 71.7862C123.628 70.9724 124.429 70.3291 125.353 69.92C124.778 69.6811 124.146 69.615 123.534 69.7298C123.534 69.7298 124.289 68.8799 125.781 69.7447C125.781 69.7447 127.178 69.2187 127.415 69.284C127.415 69.284 126.063 68.2232 124.943 68.0389C124.943 68.0389 126.292 67.6526 127.823 69.2276L129.365 69.0701C129.365 69.0701 127.65 67.5843 126.667 67.3346C126.667 67.3346 128.102 67.1534 129.757 69.0612L131.279 69.1295C131.279 69.1295 129.903 67.7269 128.866 67.2217C128.866 67.2217 130.23 67.3406 131.715 69.1622L132.729 69.3256C132.729 69.3256 131.704 68.3212 131.383 68.0597C131.062 67.7982 131.106 67.6883 131.106 67.6883C131.933 68.0544 132.642 68.6428 133.154 69.388C133.154 69.388 135.219 69.8665 135.258 69.7447Z" fill="#6C63FF"/>
<path opacity="0.1" d="M165.453 6.71295C165.453 6.71295 156.383 -0.0742986 153.141 7.27756C153.141 7.27756 152.151 8.30278 152.862 9.53008C152.862 9.53008 153.2 9.05164 154.05 9.84507C154.353 10.1237 154.687 10.366 155.046 10.5672C155.531 10.8376 156.092 10.942 156.642 10.8643C156.642 10.8643 160.017 11.5151 163.904 7.85407C163.904 7.85407 165.292 7.41129 165.42 7.14681L163.372 6.79319C163.372 6.79319 163.161 8.29981 162.104 8.97438C162.104 8.97438 163.411 6.87639 163.072 6.72484C163.004 6.69215 161.982 6.57626 161.982 6.57626C161.982 6.57626 161.589 9.20319 159.925 10.1868C159.925 10.1868 161.815 7.89567 161.584 6.52871L160.029 6.4455C160.029 6.4455 159.762 9.23588 157.911 10.4335C157.911 10.4335 159.803 7.96996 159.694 6.44848L158.157 6.57328C158.157 6.57328 157.842 9.28937 156.294 10.276C156.294 10.276 158.196 7.20922 157.807 6.62677C157.807 6.62677 156.401 6.82587 156.053 7.05766C156.053 7.05766 155.783 9.00112 154.832 9.49442C154.832 9.49442 155.887 7.31025 155.673 7.15573C155.673 7.15573 153.911 7.90458 153.218 8.75448C153.816 7.93986 154.618 7.29638 155.542 6.88828C154.967 6.64759 154.333 6.58145 153.721 6.69809C153.721 6.69809 154.478 5.8482 155.97 6.71295C155.97 6.71295 157.367 6.184 157.604 6.25235C157.604 6.25235 156.252 5.19147 155.132 5.00425C155.132 5.00425 156.478 4.62091 158.009 6.19291L159.551 6.03541C159.551 6.03541 157.839 4.54959 156.853 4.297C156.853 4.297 158.288 4.1187 159.946 6.0265L161.468 6.09188C161.468 6.09188 160.092 4.68926 159.052 4.18705C159.052 4.18705 160.419 4.30592 161.904 6.12754L162.915 6.29098C162.915 6.29098 161.887 5.29845 161.566 5.04288C161.245 4.78732 161.289 4.6744 161.289 4.6744C162.116 5.04009 162.825 5.62862 163.337 6.37418C163.337 6.37418 165.402 6.82588 165.453 6.71295Z" fill="#6C63FF"/>
<path opacity="0.1" d="M200.108 15.3099C200.108 15.3099 196.483 4.57931 189.645 8.79608C189.645 8.79608 188.248 9.09325 188.138 10.4929C188.138 10.4929 188.688 10.2908 188.932 11.42C189.022 11.8217 189.159 12.2116 189.339 12.582C189.584 13.0804 189.985 13.4859 190.48 13.7379C190.48 13.7379 192.893 16.1895 198.17 15.3783C198.17 15.3783 199.564 15.8003 199.82 15.6547L198.334 14.1956C198.334 14.1956 197.306 15.3159 196.052 15.2713C196.052 15.2713 198.319 14.2847 198.132 13.9668C198.093 13.9043 197.318 13.2298 197.318 13.2298C197.318 13.2298 195.517 15.1703 193.585 15.0425C193.585 15.0425 196.441 14.2283 197.023 12.9623L195.793 12.0144C195.793 12.0144 193.992 14.1599 191.784 14.0945C191.784 14.0945 194.756 13.1406 195.508 11.8212L194.171 11.0516C194.171 11.0516 192.388 13.1109 190.539 13.0455C190.539 13.0455 193.844 11.5983 193.853 10.897C193.853 10.897 192.584 10.2641 192.165 10.2581C192.165 10.2581 190.839 11.7053 189.787 11.5746C189.787 11.5746 191.891 10.3711 191.802 10.1244C191.802 10.1244 189.93 9.74107 188.875 10.0501C189.829 9.71791 190.854 9.64107 191.847 9.82724C191.508 9.30393 191.023 8.89085 190.453 8.63858C190.453 8.63858 191.559 8.36816 192.298 9.92531C192.298 9.92531 193.749 10.2849 193.903 10.4721C193.903 10.4721 193.392 8.83471 192.575 8.04425C192.575 8.04425 193.903 8.49297 194.266 10.6652L195.627 11.4082C195.627 11.4082 195.065 9.20617 194.388 8.43651C194.388 8.43651 195.674 9.10216 195.954 11.6132L197.172 12.5314C197.172 12.5314 196.833 10.5939 196.263 9.58951C196.263 9.58951 197.321 10.4632 197.511 12.8078L198.251 13.5151C198.251 13.5151 197.977 12.1065 197.864 11.7083C197.751 11.3101 197.844 11.2834 197.844 11.2834C198.316 12.0542 198.566 12.9408 198.566 13.8449C198.566 13.8449 200.004 15.3872 200.108 15.3099Z" fill="#6C63FF"/>
<path opacity="0.1" d="M176.448 15.8389C176.448 15.8389 165.185 14.5849 166.115 22.5756C166.115 22.5756 165.779 23.9604 167.007 24.6558C167.007 24.6558 167.057 24.0615 168.195 24.3289C168.598 24.4154 169.008 24.4563 169.42 24.4507C169.975 24.4407 170.513 24.2498 170.95 23.9069C170.95 23.9069 174.192 22.7569 175.705 17.6308C175.705 17.6308 176.674 16.5462 176.653 16.252L174.706 16.9711C174.706 16.9711 175.301 18.3767 174.706 19.494C174.706 19.494 174.769 17.0246 174.409 17.0632C174.335 17.0632 173.396 17.4911 173.396 17.4911C173.396 17.4911 174.394 19.9427 173.461 21.6514C173.461 21.6514 173.931 18.7155 173.036 17.6575L171.654 18.3707C171.654 18.3707 172.843 20.9115 171.848 22.8847C171.848 22.8847 172.234 19.8001 171.363 18.549L170.1 19.4405C170.1 19.4405 171.206 21.9397 170.371 23.5771C170.371 23.5771 170.457 19.9695 169.824 19.6634C169.824 19.6634 168.712 20.5549 168.531 20.9234C168.531 20.9234 169.283 22.7361 168.715 23.6425C168.715 23.6425 168.516 21.2265 168.255 21.2027C168.255 21.2027 167.114 22.7391 166.947 23.8237C167.05 22.8181 167.415 21.8571 168.005 21.0363C167.389 21.1215 166.81 21.3849 166.341 21.7941C166.341 21.7941 166.561 20.6797 168.285 20.6678C168.285 20.6678 169.221 19.5059 169.473 19.4435C169.473 19.4435 167.77 19.2147 166.71 19.6218C166.71 19.6218 167.675 18.6055 169.797 19.1969L171.048 18.2786C171.048 18.2786 168.787 17.821 167.83 18.1182C167.83 18.1182 168.977 17.2267 171.372 18.0439L172.718 17.3277C172.718 17.3277 170.819 16.8166 169.669 16.9087C169.669 16.9087 170.909 16.3144 173.111 17.1375L174.067 16.7661C174.067 16.7661 172.674 16.4184 172.264 16.353C171.854 16.2876 171.839 16.1747 171.839 16.1747C172.737 16.0716 173.646 16.2198 174.466 16.6026C174.466 16.6026 176.469 15.9637 176.448 15.8389Z" fill="#6C63FF"/>
<path opacity="0.1" d="M274.988 103.256C274.988 103.256 263.731 102.002 264.661 109.984C264.661 109.984 264.325 111.369 265.553 112.064C265.553 112.064 265.603 111.47 266.741 111.734C267.143 111.824 267.554 111.864 267.966 111.856C268.522 111.847 269.059 111.656 269.496 111.312C269.496 111.312 272.738 110.162 274.236 105.039C274.236 105.039 275.205 103.951 275.184 103.66L273.237 104.376C273.237 104.376 273.832 105.785 273.237 106.902C273.237 106.902 273.3 104.43 272.94 104.471C272.866 104.471 271.927 104.896 271.927 104.896C271.927 104.896 272.925 107.348 271.992 109.057C271.992 109.057 272.462 106.124 271.567 105.063L270.185 105.779C270.185 105.779 271.374 108.32 270.382 110.293C270.382 110.293 270.765 107.208 269.894 105.954L268.631 106.846C268.631 106.846 269.737 109.345 268.902 110.979C268.902 110.979 268.988 107.372 268.355 107.069C268.355 107.069 267.246 107.96 267.062 108.329C267.062 108.329 267.817 110.141 267.246 111.048C267.246 111.048 267.047 108.632 266.786 108.608C266.786 108.608 265.645 110.144 265.478 111.229C265.581 110.223 265.946 109.262 266.536 108.441C265.919 108.525 265.34 108.789 264.872 109.199C264.872 109.199 265.092 108.082 266.816 108.07C266.816 108.07 267.755 106.908 268.004 106.849C268.004 106.849 266.301 106.617 265.241 107.024C265.241 107.024 266.206 106.011 268.331 106.602L269.579 105.684C269.579 105.684 267.345 105.262 266.373 105.553C266.373 105.553 267.52 104.662 269.915 105.476L271.261 104.763C271.261 104.763 269.362 104.251 268.212 104.344C268.212 104.344 269.451 103.749 271.653 104.572L272.61 104.198C272.61 104.198 271.217 103.85 270.807 103.788C270.396 103.725 270.382 103.61 270.382 103.61C271.28 103.505 272.189 103.652 273.009 104.035C273.009 104.035 275.017 103.384 274.988 103.256Z" fill="#6C63FF"/>
<path opacity="0.1" d="M292.196 113.77C292.196 113.77 280.94 112.519 281.87 120.497C281.87 120.497 281.537 121.882 282.761 122.578C282.761 122.578 282.812 121.983 283.95 122.251C284.351 122.338 284.761 122.378 285.171 122.37C285.725 122.358 286.259 122.169 286.696 121.829C286.696 121.829 289.935 120.679 291.433 115.553C291.433 115.553 292.404 114.468 292.381 114.174L290.434 114.89C290.434 114.89 291.029 116.299 290.434 117.416C290.434 117.416 290.497 114.946 290.137 114.985C290.063 114.985 289.124 115.41 289.124 115.41C289.124 115.41 290.122 117.862 289.189 119.57C289.189 119.57 289.659 116.637 288.764 115.579L287.382 116.293C287.382 116.293 288.571 118.833 287.578 120.807C287.578 120.807 287.962 117.722 287.091 116.471L285.828 117.362C285.828 117.362 286.934 119.862 286.102 121.499C286.102 121.499 286.185 117.888 285.552 117.585C285.552 117.585 284.443 118.477 284.259 118.845C284.259 118.845 285.014 120.658 284.443 121.564C284.443 121.564 284.244 119.148 283.983 119.125C283.983 119.125 282.842 120.661 282.678 121.746C282.781 120.74 283.145 119.78 283.733 118.958C283.117 119.043 282.538 119.307 282.069 119.716C282.069 119.716 282.292 118.599 284.015 118.59C284.015 118.59 284.952 117.428 285.204 117.365C285.204 117.365 283.501 117.137 282.441 117.544C282.441 117.544 283.406 116.527 285.531 117.119L286.779 116.2C286.779 116.2 284.544 115.778 283.573 116.07C283.573 116.07 284.72 115.178 287.115 115.995L288.461 115.279C288.461 115.279 286.562 114.768 285.412 114.86C285.412 114.86 286.651 114.266 288.853 115.089L289.81 114.718C289.81 114.718 288.417 114.37 288.009 114.305C287.602 114.239 287.581 114.126 287.581 114.126C288.48 114.023 289.389 114.171 290.208 114.554C290.208 114.554 292.226 113.897 292.196 113.77Z" fill="#6C63FF"/>
<path opacity="0.1" d="M253.99 25.2115C253.99 25.2115 244.92 18.4272 241.678 25.7761C241.678 25.7761 240.689 26.8013 241.399 28.0286C241.399 28.0286 241.738 27.5502 242.588 28.3436C242.889 28.6237 243.222 28.8671 243.58 29.0687C244.066 29.3387 244.626 29.4431 245.176 29.3659C245.176 29.3659 248.552 30.0166 252.442 26.3585C252.442 26.3585 253.826 25.9128 253.957 25.6513L251.916 25.2828C251.916 25.2828 251.702 26.7894 250.647 27.464C250.647 27.464 251.951 25.366 251.613 25.2145C251.544 25.1818 250.525 25.0659 250.525 25.0659C250.525 25.0659 250.142 27.6869 248.478 28.6764C248.478 28.6764 250.37 26.3853 250.136 25.0183L248.582 24.9351C248.582 24.9351 248.317 27.7255 246.463 28.926C246.463 28.926 248.359 26.4625 248.246 24.9411L246.706 25.0659C246.706 25.0659 246.409 27.779 244.846 28.7656C244.846 28.7656 246.748 25.6988 246.356 25.1164C246.356 25.1164 244.95 25.3155 244.602 25.5473C244.602 25.5473 244.335 27.4907 243.384 27.984C243.384 27.984 244.436 25.7999 244.222 25.6483C244.222 25.6483 242.46 26.3942 241.768 27.2441C242.367 26.4303 243.168 25.7871 244.091 25.3779C243.517 25.139 242.885 25.0729 242.273 25.1877C242.273 25.1877 243.031 24.3378 244.522 25.2026C244.522 25.2026 245.916 24.6766 246.154 24.742C246.154 24.742 244.802 23.6811 243.681 23.4968C243.681 23.4968 245.03 23.1105 246.561 24.6855L248.103 24.528C248.103 24.528 246.391 23.0422 245.405 22.7926C245.405 22.7926 246.84 22.6113 248.495 24.5191L250.02 24.5874C250.02 24.5874 248.641 23.1848 247.604 22.6796C247.604 22.6796 248.971 22.7985 250.454 24.6201L251.467 24.7836C251.467 24.7836 250.442 23.7791 250.121 23.5176C249.8 23.2561 249.847 23.17 249.847 23.17C250.673 23.5366 251.381 24.125 251.892 24.8697C251.892 24.8697 253.951 25.3333 253.99 25.2115Z" fill="#6C63FF"/>
<path opacity="0.1" d="M260.997 74.1902C260.997 74.1902 257.871 63.3051 250.84 67.2128C250.84 67.2128 249.431 67.4297 249.256 68.8383C249.256 68.8383 249.815 68.663 250.008 69.8011C250.08 70.21 250.199 70.609 250.365 70.9898C250.585 71.5018 250.967 71.9277 251.452 72.2022C251.452 72.2022 253.752 74.7578 259.06 74.1872C259.06 74.1872 260.432 74.6687 260.694 74.5379L259.288 73.0105C259.288 73.0105 258.21 74.0862 256.962 73.9852C256.962 73.9852 259.268 73.0937 259.089 72.7757C259.054 72.7103 258.311 72.0001 258.311 72.0001C258.311 72.0001 256.427 73.8604 254.501 73.6434C254.501 73.6434 257.392 72.96 258.028 71.7297L256.84 70.7253C256.84 70.7253 254.944 72.7876 252.742 72.6271C252.742 72.6271 255.737 71.804 256.563 70.5232L255.262 69.6941C255.262 69.6941 253.375 71.6703 251.544 71.5217C251.544 71.5217 254.911 70.2231 254.953 69.5247C254.953 69.5247 253.711 68.8353 253.292 68.8115C253.292 68.8115 251.904 70.1963 250.849 70.018C250.849 70.018 253.006 68.9096 252.929 68.66C252.929 68.66 251.075 68.1934 250.008 68.452C250.974 68.1655 251.998 68.1358 252.98 68.3658C252.665 67.8281 252.2 67.3942 251.642 67.1177C251.642 67.1177 252.76 66.8948 253.425 68.4847C253.425 68.4847 254.855 68.9066 255.003 69.1028C255.003 69.1028 254.566 67.4416 253.785 66.6185C253.785 66.6185 255.092 67.1236 255.357 69.3108L256.682 70.1161C256.682 70.1161 256.219 67.8874 255.577 67.1029C255.577 67.1029 256.831 67.825 257 70.3449L258.189 71.3166C258.189 71.3166 257.936 69.3672 257.413 68.345C257.413 68.345 258.433 69.2662 258.516 71.6138L259.223 72.3567C259.223 72.3567 259.015 70.9363 258.926 70.5321C258.837 70.128 258.926 70.0715 258.926 70.0715C259.366 70.862 259.577 71.7592 259.535 72.6628C259.535 72.6628 260.89 74.2615 260.997 74.1902Z" fill="#6C63FF"/>
<path opacity="0.1" d="M191.336 98.7182C191.336 98.7182 185.265 89.1555 179.627 94.8789C179.627 94.8789 178.338 95.4732 178.564 96.8847C178.564 96.8847 179.054 96.5578 179.559 97.5979C179.741 97.9665 179.966 98.3117 180.231 98.6261C180.585 99.0552 181.07 99.3559 181.612 99.4819C181.612 99.4819 184.54 101.289 189.472 99.2442C189.472 99.2442 190.926 99.3215 191.14 99.1224L189.357 98.0526C189.357 98.0526 188.623 99.3898 187.395 99.6424C187.395 99.6424 189.363 98.1566 189.098 97.8832C189.048 97.8297 188.132 97.3602 188.132 97.3602C188.132 97.3602 186.846 99.6721 184.938 100.008C184.938 100.008 187.52 98.537 187.788 97.1759L186.364 96.5489C186.364 96.5489 185.125 99.06 182.968 99.5206C182.968 99.5206 185.612 97.8891 186.043 96.4271L184.557 95.9992C184.557 95.9992 183.303 98.427 181.505 98.7985C181.505 98.7985 184.37 96.6054 184.213 95.9219C184.213 95.9219 182.828 95.6099 182.43 95.705C182.43 95.705 181.488 97.4256 180.424 97.5504C180.424 97.5504 182.183 95.8803 182.037 95.6604C182.037 95.6604 180.127 95.7347 179.176 96.2844C180.024 95.7349 181.001 95.4173 182.011 95.3632C181.559 94.9356 180.992 94.6494 180.379 94.5401C180.379 94.5401 181.387 94.0141 182.459 95.3513C182.459 95.3513 183.945 95.3513 184.15 95.4999C184.15 95.4999 183.259 94.0141 182.281 93.4584C182.281 93.4584 183.678 93.5773 184.545 95.601L186.046 95.9992C186.046 95.9992 184.973 93.9933 184.138 93.4198C184.138 93.4198 185.544 93.7585 186.415 96.1329L187.817 96.7272C187.817 96.7272 187.027 94.9294 186.233 94.0884C186.233 94.0884 187.47 94.6827 188.21 96.9144L189.101 97.4285C189.101 97.4285 188.507 96.124 188.296 95.7644C188.085 95.4048 188.168 95.3216 188.168 95.3216C188.811 95.9568 189.265 96.7583 189.478 97.6365C189.478 97.6365 191.255 98.8193 191.336 98.7182Z" fill="#6C63FF"/>
<path d="M231.236 49.8584C231.236 49.8584 225.462 40.1143 219.647 45.6594C219.647 45.6594 218.339 46.224 218.523 47.6326C218.523 47.6326 219.02 47.3176 219.495 48.3725C219.665 48.7475 219.88 49.1007 220.134 49.4245C220.475 49.8627 220.951 50.1761 221.489 50.316C221.489 50.316 224.357 52.2119 229.352 50.316C229.352 50.316 230.802 50.4378 231.022 50.2447L229.278 49.1214C229.278 49.1214 228.505 50.4319 227.269 50.6488C227.269 50.6488 229.281 49.2135 229.028 48.9431C228.975 48.8866 228.077 48.3874 228.077 48.3874C228.077 48.3874 226.719 50.6607 224.808 50.9371C224.808 50.9371 227.435 49.5463 227.741 48.1972L226.339 47.5375C226.339 47.5375 225.022 50.0129 222.85 50.4081C222.85 50.4081 225.545 48.8599 226.021 47.4127L224.553 46.9372C224.553 46.9372 223.221 49.3145 221.415 49.6414C221.415 49.6414 224.345 47.5375 224.208 46.851C224.208 46.851 222.835 46.4944 222.425 46.5777C222.425 46.5777 221.43 48.2685 220.363 48.3606C220.363 48.3606 222.172 46.75 222.036 46.5242C222.036 46.5242 220.122 46.539 219.156 47.0591C220.021 46.5372 221.008 46.2504 222.018 46.227C221.579 45.7852 221.02 45.4816 220.41 45.3533C220.41 45.3533 221.436 44.8571 222.49 46.227C222.49 46.227 223.976 46.2775 224.175 46.4291C224.175 46.4291 223.334 44.9432 222.372 44.3311C222.372 44.3311 223.762 44.4915 224.568 46.542L226.053 46.9877C226.053 46.9877 225.046 44.9492 224.226 44.3489C224.226 44.3489 225.623 44.7323 226.419 47.1304L227.801 47.7752C227.801 47.7752 227.067 45.9536 226.315 45.1007C226.315 45.1007 227.53 45.7337 228.205 47.9862L229.076 48.5271C229.076 48.5271 228.517 47.2047 228.321 46.8392C228.125 46.4736 228.208 46.3934 228.208 46.3934C228.831 47.0481 229.26 47.8629 229.447 48.747C229.447 48.747 231.15 49.9564 231.236 49.8584Z" fill="#6C63FF"/>
<path d="M194.706 70.3479C194.706 70.3479 195.003 59.0259 187.137 60.6217C187.137 60.6217 185.728 60.4048 185.134 61.6945C185.134 61.6945 185.728 61.6944 185.562 62.8385C185.507 63.2465 185.501 63.6594 185.544 64.0688C185.598 64.624 185.833 65.1462 186.213 65.5546C186.213 65.5546 187.63 68.6867 192.863 69.7506C192.863 69.7506 194.025 70.6272 194.316 70.5797L193.425 68.7016C193.425 68.7016 192.073 69.397 190.911 68.9245C190.911 68.9245 193.377 68.7789 193.309 68.4163C193.309 68.342 192.798 67.4386 192.798 67.4386C192.798 67.4386 190.438 68.6422 188.67 67.8517C188.67 67.8517 191.642 68.0746 192.613 67.0969L191.784 65.7805C191.784 65.7805 189.354 67.1712 187.303 66.351C187.303 66.351 190.409 66.4758 191.585 65.5041L190.596 64.3154C190.596 64.3154 188.198 65.6289 186.498 64.9336C186.498 64.9336 190.099 64.7166 190.361 64.0599C190.361 64.0599 189.386 63.0287 188.994 62.8712C188.994 62.8712 187.253 63.7627 186.302 63.2813C186.302 63.2813 188.679 62.8831 188.694 62.6186C188.694 62.6186 187.068 61.6112 185.972 61.5369C186.983 61.555 187.972 61.8378 188.839 62.3571C188.704 61.7497 188.394 61.1951 187.948 60.7614C187.948 60.7614 189.08 60.8891 189.235 62.6038C189.235 62.6038 190.474 63.4418 190.554 63.6736C190.554 63.6736 190.64 61.9589 190.144 60.9367C190.144 60.9367 191.238 61.8133 190.828 63.9767L191.847 65.1475C191.847 65.1475 192.079 62.8831 191.707 61.9411C191.707 61.9411 192.682 63.0079 192.082 65.4625L192.905 66.7433C192.905 66.7433 193.255 64.8087 193.068 63.6706C193.068 63.6706 193.758 64.8593 193.128 67.1207L193.579 68.0419C193.579 68.0419 193.808 66.6244 193.838 66.2114C193.868 65.7983 193.98 65.7715 193.98 65.7715C194.159 66.658 194.088 67.5768 193.775 68.4252C193.775 68.4252 194.575 70.3865 194.706 70.3479Z" fill="#6C63FF"/>
<path opacity="0.1" d="M207.709 214.211C212.129 214.211 215.712 213.606 215.712 212.859C215.712 212.113 212.129 211.507 207.709 211.507C203.29 211.507 199.707 212.113 199.707 212.859C199.707 213.606 203.29 214.211 207.709 214.211Z" fill="#6C63FF"/>
<path opacity="0.1" d="M178.537 234.74C182.957 234.74 186.539 234.134 186.539 233.387C186.539 232.641 182.957 232.035 178.537 232.035C174.117 232.035 170.534 232.641 170.534 233.387C170.534 234.134 174.117 234.74 178.537 234.74Z" fill="#6C63FF"/>
<path opacity="0.1" d="M27.678 224.223C32.0977 224.223 35.6806 223.618 35.6806 222.871C35.6806 222.124 32.0977 221.519 27.678 221.519C23.2582 221.519 19.6753 222.124 19.6753 222.871C19.6753 223.618 23.2582 224.223 27.678 224.223Z" fill="#6C63FF"/>
<path opacity="0.1" d="M239.236 233.387C243.655 233.387 247.238 232.782 247.238 232.035C247.238 231.289 243.655 230.683 239.236 230.683C234.816 230.683 231.233 231.289 231.233 232.035C231.233 232.782 234.816 233.387 239.236 233.387Z" fill="#6C63FF"/>
<path d="M247.568 216.901C254.167 216.901 259.517 215.996 259.517 214.88C259.517 213.764 254.167 212.859 247.568 212.859C240.969 212.859 235.619 213.764 235.619 214.88C235.619 215.996 240.969 216.901 247.568 216.901Z" fill="#6C63FF"/>
<path d="M252.522 211.573C253.067 211.129 253.465 210.53 253.66 209.855C253.809 209.171 253.517 208.354 252.867 208.105C252.136 207.825 251.354 208.331 250.76 208.842C250.165 209.353 249.491 209.938 248.715 209.831C249.113 209.47 249.411 209.011 249.58 208.5C249.749 207.989 249.782 207.444 249.678 206.916C249.644 206.697 249.552 206.492 249.411 206.322C249.004 205.888 248.27 206.075 247.782 206.417C246.237 207.504 245.806 209.602 245.797 211.492C245.643 210.812 245.773 210.102 245.77 209.412C245.767 208.723 245.574 207.926 244.983 207.564C244.62 207.361 244.21 207.259 243.794 207.267C243.099 207.243 242.323 207.311 241.851 207.819C241.256 208.449 241.414 209.51 241.925 210.197C242.436 210.883 243.218 211.326 243.937 211.807C244.512 212.151 245.004 212.619 245.375 213.177C245.417 213.255 245.452 213.337 245.479 213.421H249.836C250.811 212.93 251.715 212.308 252.522 211.573Z" fill="#6C63FF"/>
<path d="M22.3052 216.586C22.3052 216.586 26.8667 216.446 28.2485 215.465C29.6303 214.485 35.2705 213.317 35.6123 214.889C35.954 216.461 42.4708 222.701 37.318 222.743C32.1651 222.785 25.3452 221.941 23.9723 221.103C22.5994 220.265 22.3052 216.586 22.3052 216.586Z" fill="#A8A8A8"/>
<path opacity="0.2" d="M37.4042 222.196C32.2513 222.238 25.4314 221.394 24.0585 220.556C23.0125 219.92 22.5964 217.635 22.4568 216.58H22.3052C22.3052 216.58 22.6024 220.262 23.9664 221.097C25.3303 221.932 32.1592 222.779 37.312 222.737C38.7979 222.737 39.312 222.196 39.2852 221.412C39.0772 221.89 38.5096 222.187 37.4042 222.196Z" fill="black"/>
</g>
<defs>
<linearGradient id="paint0_linear" x1="66.2648" y1="128.797" x2="159.019" y2="128.797" gradientUnits="userSpaceOnUse">
<stop stop-color="#808080" stop-opacity="0.25"/>
<stop offset="0.54" stop-color="#808080" stop-opacity="0.12"/>
<stop offset="1" stop-color="#808080" stop-opacity="0.1"/>
</linearGradient>
<clipPath id="clip0">
<rect width="300" height="234.74" fill="white"/>
</clipPath>
</defs>
</svg>
