<svg width="300" height="249" viewBox="0 0 300 249" fill="none" xmlns="http://www.w3.org/2000/svg">
<g clip-path="url(#clip0)">
<path d="M263.512 164.784C294.398 198.94 204.868 248.162 132.535 248.162C60.2024 248.162 10.1436 210.024 1.55866 164.784C-19.2813 55.096 179.128 -14.6216 132.535 81.4055C64.6254 221.379 239.19 137.885 263.512 164.784Z" fill="#3F3D56"/>
<path d="M95.8395 58.4846C97.293 58.4846 98.4713 57.3063 98.4713 55.8528C98.4713 54.3993 97.293 53.221 95.8395 53.221C94.386 53.221 93.2077 54.3993 93.2077 55.8528C93.2077 57.3063 94.386 58.4846 95.8395 58.4846Z" fill="#D0CDE1"/>
<path d="M60.1738 216.057C61.6273 216.057 62.8056 214.878 62.8056 213.425C62.8056 211.971 61.6273 210.793 60.1738 210.793C58.7203 210.793 57.542 211.971 57.542 213.425C57.542 214.878 58.7203 216.057 60.1738 216.057Z" fill="#D0CDE1"/>
<path d="M100.515 95.611C101.161 95.611 101.684 95.0876 101.684 94.442C101.684 93.7964 101.161 93.273 100.515 93.273C99.8699 93.273 99.3465 93.7964 99.3465 94.442C99.3465 95.0876 99.8699 95.611 100.515 95.611Z" fill="#D0CDE1"/>
<path d="M39.1237 156.417C39.7693 156.417 40.2927 155.894 40.2927 155.248C40.2927 154.603 39.7693 154.079 39.1237 154.079C38.4781 154.079 37.9547 154.603 37.9547 155.248C37.9547 155.894 38.4781 156.417 39.1237 156.417Z" fill="#D0CDE1"/>
<path d="M192.895 200.268C193.541 200.268 194.064 199.745 194.064 199.099C194.064 198.453 193.541 197.93 192.895 197.93C192.249 197.93 191.726 198.453 191.726 199.099C191.726 199.745 192.249 200.268 192.895 200.268Z" fill="#D0CDE1"/>
<path d="M35.3229 96.78C35.9685 96.78 36.4919 96.2566 36.4919 95.611C36.4919 94.9654 35.9685 94.442 35.3229 94.442C34.6773 94.442 34.1539 94.9654 34.1539 95.611C34.1539 96.2566 34.6773 96.78 35.3229 96.78Z" fill="#D0CDE1"/>
<path d="M106.36 64.6234H105.775V64.0379H105.483V64.6234H104.898V64.9151H105.483V65.5006H105.775V64.9151H106.36V64.6234Z" fill="#D0CDE1"/>
<path d="M61.6325 74.2712H61.047V73.6857H60.7552V74.2712H60.1697V74.5629H60.7552V75.1484H61.047V74.5629H61.6325V74.2712Z" fill="#D0CDE1"/>
<path d="M32.3994 129.232H31.8241V128.647H31.5323V129.232H30.9468V129.524H31.5323V130.11H31.8241V129.524H32.4096L32.3994 129.232Z" fill="#D0CDE1"/>
<path d="M114.548 225.411C115.193 225.411 115.717 224.887 115.717 224.242C115.717 223.596 115.193 223.073 114.548 223.073C113.902 223.073 113.379 223.596 113.379 224.242C113.379 224.887 113.902 225.411 114.548 225.411Z" fill="#D0CDE1"/>
<path d="M110.747 165.773C111.392 165.773 111.916 165.25 111.916 164.604C111.916 163.959 111.392 163.435 110.747 163.435C110.101 163.435 109.578 163.959 109.578 164.604C109.578 165.25 110.101 165.773 110.747 165.773Z" fill="#D0CDE1"/>
<path d="M249.025 187.407C249.671 187.407 250.194 186.884 250.194 186.238C250.194 185.592 249.671 185.069 249.025 185.069C248.38 185.069 247.856 185.592 247.856 186.238C247.856 186.884 248.38 187.407 249.025 187.407Z" fill="#D0CDE1"/>
<path d="M107.823 198.224H107.238V197.638H106.946V198.224H106.36V198.515H106.946V199.101H107.238V198.515H107.823V198.224Z" fill="#D0CDE1"/>
<path d="M164.537 218.98H163.954V218.397H163.662V218.98H163.076V219.272H163.662V219.857H163.954V219.272H164.537V218.98Z" fill="#D0CDE1"/>
<path d="M21.2868 166.944H20.7013V166.359H20.4095V166.944H19.824V167.236H20.4095V167.82H20.7013V167.236H21.2868V166.944Z" fill="#D0CDE1"/>
<path d="M102.562 124.846H101.976V124.261H101.684V124.846H101.105V125.138H101.691V125.723H101.982V125.138H102.568L102.562 124.846Z" fill="#D0CDE1"/>
<path d="M66.6023 90.3495H66.0168V89.764H65.725V90.3495H65.1395V90.6412H65.725V91.2267H66.0168V90.6412H66.6023V90.3495Z" fill="#D0CDE1"/>
<path d="M90.5841 147.941H89.9986V147.355H89.7068V147.941H89.1213V148.232H89.7068V148.818H89.9986V148.232H90.5841V147.941Z" fill="#D0CDE1"/>
<path d="M55.4938 184.192H54.9082V183.606H54.6165V184.192H54.031V184.483H54.6165V185.069H54.9082V184.483H55.4938V184.192Z" fill="#D0CDE1"/>
<path d="M67.4796 134.786C77.005 134.786 84.7269 133.607 84.7269 132.154C84.7269 130.7 77.005 129.522 67.4796 129.522C57.9541 129.522 50.2322 130.7 50.2322 132.154C50.2322 133.607 57.9541 134.786 67.4796 134.786Z" fill="#6C63FF"/>
<path d="M69.2361 133.023C62.1854 133.023 51.6909 132.244 51.6909 130.1C51.6909 127.955 62.1813 127.176 69.2361 127.176C76.2909 127.176 86.7813 127.955 86.7813 130.1C86.7813 132.244 76.2868 133.023 69.2361 133.023ZM69.2361 127.762C65.1719 127.726 61.1104 127.982 57.083 128.529C53.2822 129.108 52.2785 129.81 52.2785 130.1C52.2785 130.389 53.2822 131.091 57.083 131.67C65.1521 132.694 73.3181 132.694 81.3872 131.67C85.1859 131.091 86.1917 130.389 86.1917 130.1C86.1917 129.81 85.1879 129.108 81.3872 128.529C77.3602 127.985 73.2994 127.732 69.2361 127.77V127.762Z" fill="#D0CDE1"/>
<path d="M276.869 154.318C252.536 127.421 77.9821 210.913 145.882 70.9437C176.149 8.55023 102.99 16.1293 53.7433 59.1783C101.431 26.432 158.996 25.4895 131.556 82.0523C63.6563 222.026 238.221 138.531 262.533 165.431C273.85 177.947 268.998 192.485 254.748 205.884C279.252 189.827 291.413 170.402 276.869 154.318Z" fill="#E6E6E6"/>
<path d="M133.729 247.626L133.354 247.485C128.147 245.691 123.805 242.004 121.191 237.157C118.578 232.309 117.882 226.656 119.244 221.32L119.334 220.928L119.709 221.069C124.915 222.864 129.256 226.551 131.87 231.398C134.483 236.245 135.178 241.898 133.817 247.234L133.729 247.626ZM121.808 236.823C124.485 241.218 128.474 244.662 133.213 246.669C134.415 241.617 133.717 236.3 131.253 231.73C128.788 227.159 124.729 223.654 119.848 221.883C118.923 226.946 119.609 232.171 121.808 236.823Z" fill="#D0CDE1"/>
<path d="M124.136 234.999C128.583 238.013 131.944 242.376 133.725 247.444C128.413 248.538 122.883 247.592 118.237 244.794C113.59 241.997 110.167 237.553 108.647 232.347C113.961 231.549 119.391 232.478 124.136 234.999Z" fill="#6C63FF"/>
<path d="M221.3 83.717C221.3 83.717 205.434 99.2669 212.097 101.17C218.76 103.074 226.378 86.8894 226.378 86.8894L221.3 83.717Z" fill="#FFB9B9"/>
<path d="M237.166 136.079L235.262 144.964L249.543 145.598L247.322 136.077L237.166 136.079Z" fill="#FFB9B9"/>
<path d="M282.228 190.979L280.325 199.864L294.606 200.499L292.384 190.977L282.228 190.979Z" fill="#FFB9B9"/>
<path d="M257.159 76.7357L258.428 81.8136C258.428 81.8136 223.203 74.8322 225.107 92.6038C226.741 104.679 230.163 116.444 235.262 127.511C235.262 127.511 234.628 133.223 235.897 134.176C237.166 135.128 235.897 138.301 235.897 138.301C235.897 138.301 247.638 139.888 247.956 137.032C248.126 135.122 248.019 133.198 247.638 131.32C247.638 131.32 248.272 131.32 247.638 128.145C247.003 124.971 244.439 99.3792 242.538 95.8885C242.538 95.8885 259.381 108.788 268.268 107.201C267.763 117.187 269.053 127.183 272.077 136.714C277.155 153.533 277.155 155.436 277.155 155.436C277.155 155.436 283.183 187.489 281.598 191.295L281.28 192.883H293.021C293.021 192.883 292.068 176.064 293.021 173.842C293.973 171.62 293.973 152.58 288.577 143.06C284.756 136.328 285.468 116.771 287.557 109.043C289.333 103.172 289.733 96.9699 288.726 90.9187C288.342 88.1139 287.401 85.4143 285.958 82.9786C284.515 80.5429 282.6 78.4203 280.325 76.7357H257.159Z" fill="#2F2E41"/>
<path d="M266.521 28.9761C272.831 28.9761 277.946 23.861 277.946 17.5513C277.946 11.2416 272.831 6.12654 266.521 6.12654C260.212 6.12654 255.097 11.2416 255.097 17.5513C255.097 23.861 260.212 28.9761 266.521 28.9761Z" fill="#FFB9B9"/>
<path d="M263.506 25.6445C263.506 25.6445 266.997 35.8003 266.68 37.7038C266.364 39.6072 276.836 33.8948 276.836 33.8948C276.836 33.8948 272.711 23.739 273.98 20.8828L263.506 25.6445Z" fill="#FFB9B9"/>
<path d="M276.2 30.396L265.093 34.8394L265.728 38.6483C265.728 38.6483 264.775 39.9173 265.093 40.5518C265.412 41.1863 260.968 43.7242 261.603 44.677C262.237 45.6297 257.794 49.4366 258.112 50.3893C258.43 51.3421 247.956 57.0545 253.669 68.161C255.438 70.5985 256.349 73.5538 256.26 76.5643C256.246 76.7248 256.229 76.886 256.209 77.0478C255.574 81.8074 280.327 76.4133 280.327 76.4133V71.0192C280.327 71.0192 282.549 70.0665 282.23 65.9413C281.912 61.8161 280.009 63.7196 282.23 61.4979C284.452 59.2762 284.452 59.5944 284.134 57.689C284.007 56.928 283.981 54.1942 283.997 51.185C284.027 44.8248 281.956 38.6329 278.105 33.5704L276.2 30.396Z" fill="#D0CDE1"/>
<path d="M270.171 38.6545L249.543 60.233L219.396 84.0332L226.061 89.4273L281.596 52.2969C281.596 52.2969 286.356 31.9893 270.171 38.6545Z" fill="#D0CDE1"/>
<path d="M238.119 140.839C238.119 140.839 235.897 137.03 234.31 138.301L223.203 147.186C223.203 147.186 203.528 152.898 222.569 157.341C222.569 157.341 233.041 158.929 235.262 157.341C236.244 156.716 237.36 156.333 238.519 156.223C239.677 156.112 240.845 156.278 241.928 156.707C242.88 157.341 254.939 156.389 254.939 153.851C254.939 151.313 248.289 140.217 248.289 140.217C248.289 140.217 244.474 144.646 238.119 140.839Z" fill="#2F2E41"/>
<path d="M283.181 195.739C283.181 195.739 280.959 191.93 279.372 193.201L268.266 202.086C268.266 202.086 248.591 207.798 267.631 212.241C267.631 212.241 278.103 213.829 280.325 212.241C281.307 211.616 282.423 211.233 283.581 211.123C284.74 211.013 285.908 211.178 286.99 211.607C287.943 212.242 300.002 211.289 300.002 208.751C300.002 206.213 293.351 195.117 293.351 195.117C293.351 195.117 289.528 199.548 283.181 195.739Z" fill="#2F2E41"/>
<path d="M252.83 13.0202C252.83 13.0202 254.762 -3.95989 271.283 0.86095C271.283 0.86095 282.971 -1.51581 287.098 13.0814L291.289 28.3824L289.371 27.3848L288.522 29.3351L285.462 30.1736L284.095 27.5867L283.52 30.7714L262.382 35.0455C266.923 29.3127 269.421 22.2285 269.48 14.9154L267.38 17.231L252.83 13.0202Z" fill="#2F2E41"/>
<path d="M83.7578 122.953L71.8843 111.079C73.3427 108.856 73.9247 106.17 73.5177 103.543C73.1108 100.915 71.7438 98.5314 69.6811 96.8532C67.6185 95.1751 65.0067 94.3215 62.351 94.4576C59.6954 94.5938 57.1846 95.7099 55.3043 97.5902C53.424 99.4705 52.3079 101.981 52.1718 104.637C52.0356 107.293 52.8891 109.904 54.5673 111.967C56.2454 114.03 58.6289 115.397 61.2567 115.804C63.8845 116.211 66.57 115.629 68.7934 114.17L80.667 126.044L83.7578 122.953ZM57.4931 110.594C56.4236 109.524 55.6952 108.162 55.4001 106.679C55.1049 105.195 55.2563 103.658 55.835 102.261C56.4137 100.863 57.3937 99.6691 58.6512 98.8288C59.9086 97.9885 61.387 97.54 62.8994 97.54C64.4118 97.54 65.8903 97.9885 67.1478 98.8288C68.4053 99.6691 69.3852 100.863 69.9639 102.261C70.5426 103.658 70.694 105.195 70.3989 106.679C70.1037 108.162 69.3753 109.524 68.3058 110.594C66.8711 112.026 64.9262 112.831 62.8987 112.83C60.8711 112.829 58.9268 112.023 57.4931 110.59V110.594Z" fill="#6C63FF"/>
</g>
<defs>
<clipPath id="clip0">
<rect width="300" height="248.16" fill="white"/>
</clipPath>
</defs>
</svg>
